<?xml version="1.0" encoding="UTF-8"?>
<svg xmlns="http://www.w3.org/2000/svg" xmlns:xlink="http://www.w3.org/1999/xlink" width="232pt" height="232pt" viewBox="0 0 232 232" version="1.1">
<defs>
<clipPath id="clip1">
  <path d="M 0.0585938 0.378906 L 231.617188 0.378906 L 231.617188 232 L 0.0585938 232 Z M 0.0585938 0.378906 "/>
</clipPath>
</defs>
<g id="surface1">
<g clip-path="url(#clip1)" clip-rule="nonzero">
<path style=" stroke:none;fill-rule:nonzero;fill:rgb(1.727295%,2.270508%,2.323914%);fill-opacity:1;" d="M 1.71875 116.191406 C 1.71875 147.699219 14.488281 176.214844 35.136719 196.859375 C 55.785156 217.507812 84.296875 230.277344 115.800781 230.277344 C 147.308594 230.273438 175.828125 217.507812 196.476562 196.859375 C 217.125 176.214844 229.894531 147.699219 229.894531 116.191406 C 229.894531 84.691406 217.125 56.167969 196.476562 35.519531 C 175.828125 14.871094 147.308594 2.097656 115.800781 2.097656 C 80.363281 2.097656 48.699219 18.261719 27.773438 43.621094 C 11.496094 63.351562 1.71875 88.625 1.71875 116.191406 Z M 0 116.191406 C -0.00390625 88.214844 9.925781 62.542969 26.445312 42.527344 C 47.683594 16.785156 79.832031 0.378906 115.800781 0.378906 C 179.765625 0.378906 231.613281 52.238281 231.617188 116.191406 C 231.613281 180.144531 179.765625 232 115.800781 232 C 51.847656 232 0 180.144531 0 116.191406 "/>
</g>
<path style=" stroke:none;fill-rule:nonzero;fill:rgb(1.727295%,2.270508%,2.323914%);fill-opacity:1;" d="M 25.445312 163.171875 C 25.464844 161.65625 26.703125 160.445312 28.21875 160.46875 C 29.730469 160.484375 30.945312 161.722656 30.925781 163.238281 C 30.90625 164.753906 29.664062 165.964844 28.152344 165.949219 C 26.640625 165.925781 25.429688 164.683594 25.445312 163.171875 "/>
<path style=" stroke:none;fill-rule:nonzero;fill:rgb(1.727295%,2.270508%,2.323914%);fill-opacity:1;" d="M 199.746094 164.804688 C 199.761719 163.292969 201.003906 162.082031 202.515625 162.101562 C 204.027344 162.117188 205.242188 163.355469 205.222656 164.871094 C 205.207031 166.386719 203.964844 167.601562 202.453125 167.578125 C 200.9375 167.558594 199.726562 166.320312 199.746094 164.804688 "/>
<path style=" stroke:none;fill-rule:nonzero;fill:rgb(1.727295%,2.270508%,2.323914%);fill-opacity:1;" d="M 193.433594 148.988281 C 189.1875 158.992188 183.140625 167.972656 175.421875 175.699219 C 167.703125 183.40625 158.722656 189.46875 148.714844 193.703125 C 144.777344 195.375 140.75 196.722656 136.644531 197.757812 L 136.546875 196.085938 C 136.546875 195.078125 135.40625 194.570312 134.78125 194.570312 L 131.171875 194.628906 C 131.171875 194.628906 130.058594 194.359375 129.925781 194.316406 C 129.789062 194.273438 129.820312 194.132812 129.84375 194.105469 C 130.097656 193.796875 130.113281 193.355469 129.863281 193.03125 L 127.109375 189.433594 L 127.195312 186.878906 C 135.300781 186.679688 141.265625 183.601562 144.050781 181.574219 C 146.785156 179.546875 146.964844 176.453125 146.96875 175.535156 C 146.96875 175.402344 146.964844 175.3125 146.964844 175.269531 L 146.878906 168.089844 C 146.90625 168.078125 146.933594 168.074219 146.957031 168.058594 L 154.636719 163.746094 C 154.933594 163.582031 155.101562 163.261719 155.074219 162.921875 L 150.03125 106.738281 C 150.25 106.664062 150.964844 106.417969 151.769531 106.117188 C 152.75 105.738281 153.785156 105.339844 154.398438 104.9375 C 154.949219 104.550781 157.261719 102.605469 157.820312 102.027344 C 158.308594 101.507812 158.492188 100.84375 158.484375 100.25 C 158.476562 99.324219 158.121094 98.503906 157.761719 97.851562 C 157.445312 97.304688 157.007812 96.855469 156.535156 96.46875 C 157.59375 94.109375 158.132812 91.492188 158.128906 88.792969 C 158.132812 84.082031 157.003906 80.371094 155.917969 76.863281 C 154.824219 73.351562 153.78125 70.039062 153.78125 65.960938 C 153.78125 58.386719 153.859375 53.890625 153.859375 53.878906 C 153.863281 53.648438 153.773438 53.425781 153.613281 53.261719 C 153.453125 53.097656 153.230469 53.003906 153 53.003906 C 150.457031 52.996094 148.878906 53.835938 148.011719 54.773438 C 147.605469 55.210938 147.359375 55.644531 147.207031 55.996094 L 131.671875 55.996094 C 131.519531 55.609375 131.265625 55.109375 130.84375 54.597656 C 130.007812 53.558594 128.429688 52.558594 125.964844 52.570312 C 125.734375 52.570312 125.515625 52.664062 125.355469 52.828125 C 125.191406 52.988281 125.101562 53.210938 125.101562 53.441406 C 125.101562 53.453125 125.152344 59.152344 125.148438 67.144531 C 125.152344 67.773438 125.121094 68.394531 125.070312 69.007812 C 124.753906 68.507812 124.410156 68.003906 124.046875 67.527344 C 123.085938 66.296875 122.074219 65.210938 120.824219 64.800781 C 119.703125 64.457031 118.035156 63.9375 116.082031 63.34375 C 115.363281 63.117188 115.070312 62.785156 114.867188 62.425781 C 114.75 62.210938 114.683594 61.972656 114.648438 61.753906 L 115.601562 61.769531 L 115.648438 61.769531 C 116.507812 61.742188 117.238281 61.628906 117.863281 61.371094 C 118.476562 61.121094 119.042969 60.65625 119.25 59.972656 C 119.359375 59.617188 119.394531 59.28125 119.394531 58.984375 C 119.390625 58.644531 119.351562 58.351562 119.308594 58.132812 L 119.714844 57.417969 C 119.847656 57.183594 119.863281 56.90625 119.765625 56.667969 C 119.953125 56.492188 120.050781 56.238281 120.035156 55.980469 L 119.976562 55.097656 C 120.019531 55.089844 120.0625 55.082031 120.105469 55.074219 C 120.367188 55.023438 120.640625 54.964844 120.921875 54.835938 C 121.0625 54.765625 121.214844 54.6875 121.375 54.527344 C 121.53125 54.375 121.703125 54.089844 121.699219 53.757812 C 121.699219 53.523438 121.648438 52.972656 121.574219 52.109375 C 121.390625 49.988281 121.050781 46.390625 120.945312 45.273438 C 121.296875 44.796875 121.902344 43.828125 121.929688 42.566406 C 121.933594 41.753906 121.695312 40.796875 120.953125 40.046875 C 120.230469 39.3125 119.109375 38.886719 117.601562 38.867188 C 116.9375 38.691406 113.460938 37.769531 112.453125 37.617188 C 111.707031 37.511719 110.707031 37.339844 109.527344 37.339844 C 107.519531 37.332031 104.976562 37.875 102.21875 40.007812 C 98.652344 42.816406 98.359375 47.84375 98.335938 50.082031 C 98.335938 50.515625 98.351562 50.847656 98.363281 51.046875 C 98.242188 51.402344 98.0625 52.144531 98.0625 53.324219 C 98.0625 53.976562 98.117188 54.753906 98.265625 55.675781 C 98.613281 57.910156 99.992188 59.257812 101.214844 59.953125 C 101.832031 60.308594 102.414062 60.523438 102.851562 60.648438 L 102.851562 62.285156 C 102.175781 62.628906 97.878906 64.515625 93.746094 67.359375 C 93.660156 67.441406 93.320312 67.632812 93 67.996094 C 92.992188 68.003906 92.980469 68.011719 92.972656 68.015625 L 46.546875 114.964844 C 46.382812 115.128906 46.289062 115.355469 46.296875 115.59375 C 46.304688 115.824219 46.40625 116.050781 46.578125 116.207031 C 46.585938 116.214844 49.777344 119.117188 53.320312 122.359375 C 54.203125 123.164062 55.105469 123.988281 55.988281 124.800781 L 47.476562 136.476562 C 46.757812 137.390625 46.300781 138.710938 46.304688 140.472656 C 46.3125 144.035156 48.078125 149.445312 53.484375 157.867188 C 59.652344 167.457031 64.378906 171.878906 66.121094 173.332031 L 63.871094 175.910156 C 63.796875 175.992188 63.078125 176.757812 62.335938 177.738281 C 61.945312 178.25 61.550781 178.820312 61.238281 179.398438 C 61.164062 179.539062 61.09375 179.679688 61.027344 179.824219 C 59.507812 178.507812 58.023438 177.132812 56.585938 175.695312 C 48.875 167.972656 42.820312 158.992188 38.59375 148.988281 C 34.203125 138.644531 31.980469 127.636719 31.980469 116.273438 C 31.980469 104.941406 34.203125 93.941406 38.59375 83.589844 C 42.820312 73.566406 48.875 64.589844 56.585938 56.867188 C 64.316406 49.15625 73.289062 43.097656 83.300781 38.863281 C 93.664062 34.488281 104.65625 32.273438 116.015625 32.273438 C 127.351562 32.273438 138.351562 34.488281 148.714844 38.863281 C 158.722656 43.097656 167.703125 49.15625 175.421875 56.867188 C 183.144531 64.589844 189.1875 73.566406 193.4375 83.585938 C 197.804688 93.941406 200.023438 104.941406 200.023438 116.273438 C 200.023438 127.636719 197.804688 138.644531 193.433594 148.988281 Z M 115.640625 200.296875 C 120.5625 199.449219 124.914062 197.835938 128.09375 195.542969 L 130.800781 196.320312 C 130.894531 196.347656 131 196.363281 131.101562 196.359375 C 131.101562 196.359375 133.621094 196.222656 133.828125 196.203125 C 134.546875 196.160156 134.867188 196.585938 134.875 196.734375 C 134.878906 196.886719 134.894531 197.074219 134.894531 197.074219 C 134.894531 197.074219 134.925781 197.519531 134.632812 197.808594 C 134.363281 198.078125 132.421875 198.613281 131.714844 198.839844 C 126.574219 199.808594 121.332031 200.304688 116.015625 200.304688 C 115.890625 200.304688 115.765625 200.296875 115.640625 200.296875 Z M 66.15625 177.441406 C 66.464844 177.449219 66.8125 177.449219 67.199219 177.453125 C 74.035156 177.449219 92.246094 175.882812 105.519531 160.238281 C 116.441406 147.273438 119.179688 122.527344 119.609375 118.199219 L 123.03125 117.953125 C 122.90625 119.726562 122.605469 123.925781 122.074219 129.597656 C 121.359375 137.210938 120.238281 147.445312 118.613281 157.980469 C 116.984375 168.511719 115.027344 178.945312 113.476562 186.75 C 112.328125 192.523438 111.402344 196.839844 111 198.703125 C 110.964844 198.867188 110.753906 199.179688 110.351562 199.179688 C 109.402344 199.179688 108.449219 199.265625 107.480469 199.261719 C 104.339844 199.265625 101.097656 198.96875 97.894531 198.351562 C 96.21875 197.980469 94.554688 197.566406 92.902344 197.09375 C 81.03125 193.351562 74.140625 188.0625 70.214844 183.785156 C 68.242188 181.632812 67.015625 179.726562 66.285156 178.367188 C 66.167969 178.144531 66.066406 177.945312 65.972656 177.757812 C 65.871094 177.554688 65.984375 177.433594 66.15625 177.441406 Z M 66.570312 175.4375 C 66.785156 175.191406 90 148.539062 90 148.539062 C 90.085938 148.441406 90.144531 148.324219 90.179688 148.203125 C 90.179688 148.203125 97.046875 122.855469 97.09375 122.679688 C 97.140625 122.496094 97.320312 122.449219 97.320312 122.449219 C 97.320312 122.449219 109.496094 119.121094 109.964844 118.984375 C 110.4375 118.847656 111.109375 118.792969 111.109375 118.792969 L 117.871094 118.316406 C 117.789062 119.105469 117.648438 120.375 117.425781 122.003906 C 116.277344 130.570312 112.773438 149.054688 104.203125 159.125 C 91.449219 174.191406 73.804688 175.734375 67.199219 175.730469 C 67.050781 175.730469 66.910156 175.730469 66.777344 175.726562 C 66.523438 175.726562 66.351562 175.6875 66.570312 175.4375 Z M 134.742188 61.800781 L 134.742188 68.527344 C 134.164062 68.847656 133.71875 69.128906 133.476562 69.273438 C 132.699219 69.765625 131.648438 70.707031 131.449219 70.882812 L 131.441406 70.886719 C 131.746094 68.589844 131.960938 65.699219 131.988281 61.800781 Z M 138.652344 61.800781 L 138.652344 66.941406 C 137.902344 67.105469 137.152344 67.363281 136.464844 67.664062 L 136.464844 61.800781 Z M 142.433594 61.800781 L 142.433594 67.09375 C 141.8125 66.863281 141.121094 66.785156 140.375 66.777344 L 140.375 61.800781 Z M 145.722656 72.882812 C 145.625 72.574219 145.429688 72.113281 144.839844 71.914062 C 144.6875 71.871094 144.523438 71.828125 144.367188 71.796875 C 144.363281 71.253906 144.359375 70.496094 144.359375 69.90625 C 144.367188 69.492188 144.296875 69.09375 144.15625 68.734375 L 144.15625 61.800781 L 146.859375 61.800781 C 146.90625 68.90625 147.523438 73.121094 148.144531 76.179688 C 148.796875 79.363281 149.398438 81.199219 149.398438 83.746094 C 149.398438 86.484375 148.34375 89.09375 146.609375 91 C 145.894531 91.785156 145.066406 92.449219 144.15625 92.960938 L 144.15625 76.210938 C 144.21875 76.199219 144.28125 76.191406 144.339844 76.1875 C 144.421875 76.183594 144.496094 76.171875 144.550781 76.167969 C 144.601562 76.160156 144.625 76.164062 144.625 76.160156 C 144.945312 76.160156 145.171875 76.003906 145.285156 75.894531 C 145.652344 75.488281 145.648438 75.246094 145.742188 74.910156 C 145.808594 74.59375 145.847656 74.230469 145.847656 73.867188 C 145.847656 73.539062 145.820312 73.214844 145.722656 72.882812 Z M 140.375 94.089844 L 140.375 76.796875 C 141.167969 76.601562 141.859375 76.425781 142.117188 76.359375 L 142.433594 76.359375 L 142.433594 93.707031 C 141.777344 93.914062 141.089844 94.042969 140.375 94.089844 Z M 136.464844 93.652344 L 136.464844 77.523438 C 136.617188 77.515625 136.765625 77.511719 136.882812 77.511719 C 137.238281 77.503906 137.597656 77.421875 138.144531 77.3125 C 138.304688 77.277344 138.472656 77.238281 138.652344 77.199219 L 138.652344 94.058594 C 137.902344 93.988281 137.171875 93.851562 136.464844 93.652344 Z M 129.265625 85.875 C 131.277344 83.40625 133.496094 80.378906 134.742188 78.652344 L 134.742188 93.023438 C 133.882812 92.628906 133.082031 92.128906 132.378906 91.53125 C 130.757812 90.140625 129.613281 88.261719 129.265625 85.875 Z M 129.601562 117.394531 L 130.230469 117.265625 C 130.628906 117.183594 130.917969 116.828125 130.917969 116.425781 L 130.945312 105.253906 C 133.242188 106.179688 135.917969 106.714844 138.960938 106.714844 C 138.972656 106.714844 138.980469 106.714844 138.988281 106.714844 C 140.941406 106.71875 142.757812 106.496094 144.4375 106.109375 L 145.238281 175.316406 L 145.242188 175.359375 C 145.242188 175.359375 145.246094 175.40625 145.246094 175.535156 C 145.253906 176.242188 145.0625 178.722656 143.035156 180.179688 C 140.519531 182.019531 134.878906 184.953125 127.257812 185.15625 Z M 100.808594 97.476562 C 99.449219 95.609375 95.492188 90.0625 94.15625 79.953125 C 94.246094 80.0625 94.339844 80.167969 94.4375 80.265625 C 95.871094 81.765625 97.492188 82.765625 98.464844 83.261719 C 107.089844 87.886719 120.945312 93.34375 120.960938 93.347656 C 120.972656 93.347656 120.980469 93.351562 120.988281 93.355469 C 121.113281 93.933594 121.273438 94.5 121.457031 95.066406 L 108.453125 95.863281 C 108.453125 95.863281 106.929688 95.929688 105.828125 96.242188 C 104.5 96.617188 101.460938 97.480469 101.257812 97.550781 C 101 97.632812 100.855469 97.539062 100.808594 97.476562 Z M 95.515625 119.21875 C 95.515625 119.21875 101.121094 99.859375 101.195312 99.597656 C 101.269531 99.339844 101.527344 99.265625 101.527344 99.265625 C 101.527344 99.265625 105.628906 98.117188 106.28125 97.902344 C 106.933594 97.691406 108.007812 97.613281 108.007812 97.613281 L 122.097656 96.75 C 122.835938 98.398438 123.84375 99.960938 125.144531 101.335938 C 126.285156 102.539062 127.648438 103.589844 129.230469 104.445312 C 129.230469 104.445312 129.199219 115.160156 129.199219 115.363281 C 129.199219 115.566406 129.097656 115.796875 128.648438 115.835938 C 128.195312 115.871094 114.476562 116.828125 111.058594 117.074219 C 110.570312 117.101562 109.988281 117.191406 109.46875 117.335938 C 108.945312 117.480469 97 120.753906 97 120.753906 C 97 120.753906 96.589844 120.816406 96.386719 120.660156 C 96.183594 120.496094 96.074219 120.40625 95.707031 120.117188 C 95.339844 119.824219 95.515625 119.21875 95.515625 119.21875 Z M 125.550781 190.238281 C 125.550781 190.238281 127.789062 193.132812 127.871094 193.261719 C 127.960938 193.394531 127.890625 193.546875 127.828125 193.59375 C 124.449219 196.355469 118.96875 198.285156 112.699219 198.976562 C 113.691406 194.421875 117.496094 176.492188 120.316406 158.238281 C 123.222656 139.417969 124.515625 121.550781 124.765625 117.835938 C 124.765625 117.835938 127.027344 117.683594 127.421875 117.648438 C 127.816406 117.605469 127.867188 117.84375 127.855469 118.082031 C 127.847656 118.324219 125.375 189.683594 125.375 189.683594 C 125.367188 189.886719 125.429688 190.078125 125.550781 190.238281 Z M 153.285156 162.261719 C 153.285156 162.261719 153.3125 162.511719 153.113281 162.628906 C 152.910156 162.742188 146.855469 166.140625 146.855469 166.140625 L 146.15625 105.636719 C 146.839844 105.414062 147.5 105.152344 148.132812 104.867188 Z M 150.753906 102.480469 C 150.289062 101.820312 150.136719 101.378906 150.140625 101.085938 C 150.140625 100.988281 150.15625 100.898438 150.1875 100.789062 L 150.191406 100.789062 C 150.257812 100.628906 150.773438 100.074219 151.234375 99.683594 C 151.699219 99.277344 152.113281 98.964844 152.117188 98.960938 C 152.359375 98.8125 152.515625 98.421875 152.496094 98.191406 C 152.480469 97.847656 152.390625 97.730469 152.339844 97.59375 C 152.28125 97.472656 152.21875 97.367188 152.171875 97.273438 C 152.113281 97.140625 152.074219 96.855469 152.335938 96.597656 C 152.628906 96.300781 153.039062 96.421875 153.128906 96.460938 C 153.445312 96.585938 153.972656 96.828125 154.476562 97.128906 C 155.226562 97.566406 155.984375 98.183594 156.261719 98.699219 C 156.542969 99.183594 156.773438 99.820312 156.761719 100.25 C 156.757812 100.535156 156.644531 100.753906 156.503906 100.910156 C 156.226562 101.226562 153.695312 103.351562 153.4375 103.511719 C 153.167969 103.703125 152.082031 104.164062 151.164062 104.503906 C 150.894531 104.605469 150.636719 104.699219 150.40625 104.78125 C 150.089844 104.914062 150.039062 104.707031 150.039062 104.707031 C 150.039062 104.707031 149.976562 104.519531 150.101562 104.398438 C 150.246094 104.28125 150.390625 104.144531 150.53125 103.992188 C 150.683594 103.792969 150.90625 103.605469 150.941406 103.066406 C 150.941406 102.886719 150.882812 102.660156 150.753906 102.480469 Z M 126.835938 54.808594 C 126.835938 54.429688 126.96875 54.367188 127.03125 54.375 C 128.34375 54.582031 129.058594 55.152344 129.515625 55.691406 C 129.800781 56.035156 129.96875 56.378906 130.070312 56.632812 C 130.117188 56.761719 130.148438 56.863281 130.167969 56.929688 C 130.175781 56.964844 130.179688 56.988281 130.183594 57 L 130.183594 57.003906 C 130.253906 57.414062 130.617188 57.71875 131.035156 57.71875 L 147.835938 57.71875 C 148.261719 57.71875 148.625 57.40625 148.6875 56.984375 C 148.707031 56.902344 148.839844 56.359375 149.378906 55.839844 C 149.828125 55.417969 150.566406 54.960938 151.90625 54.792969 C 152.089844 54.753906 152.121094 54.933594 152.121094 55.089844 C 152.121094 56.867188 152.058594 60.578125 152.058594 65.960938 C 152.058594 70.34375 153.1875 73.875 154.273438 77.375 C 155.359375 80.878906 156.40625 84.355469 156.40625 88.792969 C 156.40625 91.164062 155.953125 93.4375 155.078125 95.492188 C 154.304688 95.0625 153.660156 94.796875 153.300781 94.695312 C 153.179688 94.664062 153.058594 94.652344 152.941406 94.652344 C 152.261719 94.679688 151.824219 94.980469 151.390625 95.28125 C 150.964844 95.625 150.640625 95.867188 150.398438 96.398438 C 150.332031 96.574219 150.300781 96.757812 150.300781 96.925781 C 150.3125 97.394531 150.472656 97.71875 150.597656 97.96875 C 150.417969 98.117188 150.210938 98.289062 149.992188 98.484375 C 149.714844 98.734375 149.421875 99.007812 149.171875 99.296875 C 148.914062 99.589844 148.6875 99.851562 148.546875 100.277344 C 148.460938 100.539062 148.421875 100.8125 148.421875 101.085938 C 148.421875 101.613281 148.566406 102.101562 148.8125 102.585938 C 146.207031 104.097656 142.9375 104.988281 138.988281 104.992188 C 133.242188 104.988281 129.125 103.015625 126.394531 100.148438 C 124.359375 98.007812 123.101562 95.34375 122.589844 92.589844 C 123.4375 91.871094 124.925781 90.558594 126.816406 88.664062 C 127.136719 88.339844 127.488281 87.960938 127.859375 87.542969 C 128.464844 89.703125 129.675781 91.5 131.261719 92.839844 C 133.464844 94.714844 136.355469 95.726562 139.351562 95.816406 C 139.40625 95.824219 139.460938 95.832031 139.515625 95.832031 C 139.535156 95.832031 139.558594 95.828125 139.582031 95.824219 C 139.652344 95.828125 139.71875 95.835938 139.789062 95.835938 C 146.261719 95.816406 151.109375 90.089844 151.121094 83.746094 C 151.117188 80.894531 150.453125 78.90625 149.835938 75.835938 C 149.210938 72.753906 148.578125 68.480469 148.578125 60.941406 C 148.578125 60.714844 148.488281 60.492188 148.328125 60.332031 C 148.167969 60.171875 147.945312 60.082031 147.71875 60.082031 L 131.132812 60.082031 C 130.902344 60.082031 130.679688 60.171875 130.519531 60.332031 C 130.363281 60.492188 130.269531 60.714844 130.269531 60.941406 C 130.265625 66.335938 129.921875 69.796875 129.476562 72.382812 L 125.578125 75.339844 C 125.890625 74.222656 126.167969 73.085938 126.382812 71.921875 C 126.398438 71.871094 126.410156 71.824219 126.414062 71.773438 C 126.691406 70.277344 126.863281 68.738281 126.871094 67.144531 C 126.871094 61.484375 126.847656 56.964844 126.835938 54.808594 Z M 99.851562 67.9375 C 101.167969 67.933594 102.34375 68.316406 103.027344 69.011719 C 104.144531 70.128906 105.355469 71.652344 106.269531 72.886719 C 107.1875 74.121094 107.808594 75.0625 107.8125 75.0625 C 107.875 75.160156 107.953125 75.238281 108.046875 75.300781 L 118.367188 82.25 C 118.675781 82.460938 119.074219 82.445312 119.371094 82.226562 L 132.511719 72.238281 L 132.566406 72.191406 C 132.566406 72.191406 132.855469 71.929688 133.238281 71.609375 C 133.617188 71.292969 134.09375 70.914062 134.390625 70.730469 C 135.074219 70.277344 137.976562 68.558594 139.820312 68.507812 C 139.984375 68.5 140.140625 68.496094 140.289062 68.496094 C 141.175781 68.488281 141.832031 68.644531 142.160156 68.859375 C 142.472656 69.085938 142.613281 69.265625 142.636719 69.90625 C 142.636719 70.957031 142.652344 72.511719 142.652344 72.511719 C 142.65625 72.929688 142.957031 73.207031 143.367188 73.277344 C 143.691406 73.277344 144.128906 73.371094 144.128906 73.867188 C 144.128906 74.4375 143.738281 74.523438 143.554688 74.546875 C 143.238281 74.585938 142.945312 74.621094 142.824219 74.640625 L 142.011719 74.636719 L 141.796875 74.664062 C 141.792969 74.664062 140.6875 74.949219 139.496094 75.234375 C 138.898438 75.378906 138.285156 75.523438 137.785156 75.625 C 137.539062 75.675781 137.316406 75.722656 137.148438 75.75 C 137.066406 75.761719 136.996094 75.777344 136.945312 75.78125 C 136.894531 75.789062 136.882812 75.785156 136.882812 75.789062 C 136.121094 75.789062 134.945312 75.921875 134.925781 75.921875 C 134.683594 75.949219 134.460938 76.082031 134.320312 76.28125 C 134.3125 76.285156 132.863281 78.351562 131.039062 80.785156 C 129.214844 83.222656 127.007812 86.035156 125.597656 87.449219 C 124.132812 88.917969 122.914062 90.027344 122.066406 90.765625 C 121.800781 90.996094 121.574219 91.1875 121.386719 91.347656 C 121.289062 91.429688 121.054688 91.53125 120.808594 91.433594 C 119.546875 90.914062 116.855469 89.835938 113.617188 88.449219 C 109.09375 86.519531 103.503906 84.007812 99.261719 81.738281 C 98.414062 81.304688 96.921875 80.382812 95.683594 79.078125 C 95.550781 78.9375 95.421875 78.789062 95.292969 78.644531 C 95.253906 78.597656 95.214844 78.546875 95.175781 78.5 C 95.078125 78.382812 94.988281 78.265625 94.898438 78.144531 C 94.828125 78.054688 94.765625 77.957031 94.699219 77.863281 C 94.644531 77.78125 94.589844 77.699219 94.535156 77.617188 C 94.476562 77.523438 94.417969 77.425781 94.359375 77.324219 C 94.335938 77.285156 94.3125 77.242188 94.292969 77.203125 C 94.175781 76.992188 94.070312 76.777344 93.980469 76.558594 C 93.964844 76.527344 93.953125 76.5 93.9375 76.46875 C 93.886719 76.339844 93.839844 76.210938 93.792969 76.082031 C 93.792969 76.078125 93.792969 76.078125 93.792969 76.078125 C 93.792969 76.074219 93.792969 76.074219 93.792969 76.070312 C 93.714844 75.839844 93.652344 75.605469 93.601562 75.363281 C 93.582031 75.257812 93.558594 75.152344 93.542969 75.050781 C 93.53125 74.96875 93.519531 74.890625 93.511719 74.8125 C 93.492188 74.609375 93.476562 74.410156 93.476562 74.203125 C 93.476562 74.070312 93.480469 73.933594 93.492188 73.796875 C 93.5 73.679688 93.511719 73.5625 93.527344 73.449219 C 93.53125 73.429688 93.53125 73.410156 93.535156 73.390625 C 93.574219 73.113281 93.632812 72.832031 93.710938 72.546875 C 93.710938 72.542969 93.710938 72.542969 93.710938 72.542969 L 93.714844 72.539062 C 93.761719 72.367188 93.816406 72.1875 93.882812 72.007812 C 93.886719 71.996094 93.886719 71.988281 93.890625 71.980469 C 93.953125 71.816406 94.019531 71.644531 94.09375 71.472656 C 94.105469 71.449219 94.113281 71.425781 94.125 71.402344 C 94.199219 71.242188 94.277344 71.082031 94.363281 70.917969 C 94.382812 70.882812 94.398438 70.847656 94.417969 70.8125 C 94.523438 70.617188 94.636719 70.421875 94.761719 70.21875 C 95.542969 68.90625 97.789062 67.914062 99.851562 67.9375 Z M 108.277344 69.585938 C 108.433594 69.707031 108.617188 69.765625 108.8125 69.765625 C 108.828125 69.765625 108.847656 69.765625 108.867188 69.765625 L 118.890625 69.085938 C 119.21875 69.0625 119.507812 68.855469 119.628906 68.550781 C 119.753906 68.246094 119.695312 67.898438 119.476562 67.652344 L 117.671875 65.632812 C 118.71875 65.953125 119.625 66.234375 120.320312 66.449219 C 120.859375 66.582031 121.84375 67.449219 122.675781 68.574219 C 123.464844 69.605469 124.1875 70.824219 124.664062 71.8125 C 124.308594 73.589844 123.800781 75.339844 123.257812 77.105469 L 118.816406 80.480469 L 109.148438 73.964844 C 108.660156 73.242188 106.410156 69.964844 104.246094 67.792969 C 103.097656 66.660156 101.472656 66.21875 99.851562 66.214844 C 99.550781 66.21875 99.25 66.234375 98.949219 66.265625 C 99.375 66.035156 99.796875 65.808594 100.210938 65.589844 C 100.84375 65.253906 101.445312 64.941406 101.984375 64.660156 Z M 118.261719 55.289062 C 118.261719 55.289062 118.277344 55.558594 118.046875 55.6875 C 117.820312 55.8125 117.664062 56.039062 117.621094 56.296875 C 117.578125 56.554688 117.691406 56.800781 117.828125 57.011719 C 117.863281 57.0625 117.871094 57.171875 117.8125 57.277344 C 117.753906 57.378906 117.640625 57.574219 117.640625 57.574219 C 117.519531 57.785156 117.496094 58.039062 117.570312 58.269531 C 117.570312 58.269531 117.570312 58.269531 117.582031 58.304688 C 117.609375 58.402344 117.671875 58.6875 117.671875 58.984375 C 117.671875 59.152344 117.535156 59.632812 117.199219 59.777344 C 116.878906 59.914062 116.335938 60.023438 115.621094 60.050781 L 113.804688 60.011719 C 113.386719 60.003906 113.019531 60.300781 112.945312 60.714844 C 112.9375 60.757812 112.894531 60.988281 112.894531 61.34375 C 112.894531 61.816406 112.964844 62.519531 113.347656 63.238281 C 113.492188 63.519531 113.695312 63.789062 113.945312 64.042969 C 113.949219 64.042969 113.953125 64.050781 113.957031 64.054688 L 113.953125 64.054688 L 117.019531 67.488281 L 109.078125 68.027344 L 103.675781 63.796875 C 103.941406 63.664062 104.09375 63.585938 104.09375 63.585938 C 104.390625 63.441406 104.574219 63.144531 104.574219 62.816406 L 104.574219 60.320312 L 108.042969 56.839844 C 108.257812 56.625 108.34375 56.308594 108.269531 56.019531 C 108.195312 55.726562 107.96875 55.492188 107.679688 55.40625 L 107.679688 55.402344 C 107.523438 55.296875 106.484375 54.964844 106.449219 52.835938 C 106.460938 52.488281 106.546875 52.441406 106.621094 52.363281 C 106.648438 52.339844 106.679688 52.320312 106.703125 52.304688 L 108.960938 52.285156 C 109.226562 52.285156 109.480469 52.160156 109.640625 51.949219 C 109.640625 51.949219 113.253906 47.171875 113.503906 46.863281 C 113.753906 46.550781 114.128906 46.527344 114.128906 46.527344 L 119.023438 45.992188 C 119.023438 45.992188 119.273438 45.976562 119.3125 46.28125 C 119.355469 46.734375 119.40625 47.28125 119.460938 47.878906 C 119.472656 48.128906 119.304688 48.222656 119.210938 48.222656 C 118.589844 48.242188 117.941406 48.261719 117.253906 48.289062 C 116.527344 48.316406 115.738281 48.644531 115.21875 49.085938 C 114.832031 49.410156 114.820312 50.015625 115.179688 50.359375 C 115.378906 50.550781 115.808594 50.617188 116.277344 50.757812 C 116.871094 50.9375 117.53125 51.160156 117.859375 51.058594 C 118.28125 50.921875 118.441406 50.550781 118.472656 50.140625 C 118.503906 49.6875 118.777344 49.375 119.234375 49.375 C 119.429688 49.375 119.546875 49.535156 119.5625 49.699219 C 119.652344 50.554688 119.808594 51.640625 119.859375 52.257812 C 119.886719 52.558594 119.910156 52.839844 119.929688 53.074219 C 119.9375 53.382812 119.667969 53.40625 119.53125 53.421875 C 119.246094 53.457031 119.019531 53.464844 119.019531 53.46875 C 118.785156 53.476562 118.570312 53.582031 118.417969 53.757812 C 118.261719 53.929688 118.183594 54.152344 118.199219 54.386719 Z M 105.09375 48.710938 C 104.941406 48.269531 104.472656 48.03125 104.03125 48.167969 C 104.40625 47.832031 104.777344 47.507812 105.136719 47.203125 L 108.835938 46.71875 C 109.308594 46.652344 109.640625 46.222656 109.578125 45.75 C 109.515625 45.28125 109.082031 44.949219 108.609375 45.007812 L 108.046875 45.082031 C 109.203125 44.402344 110.386719 43.851562 111.363281 43.449219 C 112.023438 43.179688 112.585938 42.972656 112.984375 42.832031 C 113.378906 42.699219 113.597656 42.632812 113.597656 42.632812 C 114.054688 42.496094 114.3125 42.019531 114.179688 41.5625 C 114.042969 41.105469 113.5625 40.847656 113.109375 40.984375 C 113.082031 40.992188 111.644531 41.414062 109.78125 42.257812 C 110.054688 41.867188 109.960938 41.332031 109.570312 41.058594 C 109.183594 40.789062 108.644531 40.882812 108.371094 41.269531 L 106.394531 44.082031 C 106.214844 44.199219 106.039062 44.316406 105.863281 44.4375 C 105.609375 44.617188 105.328125 44.824219 105.035156 45.0625 L 105.234375 44.667969 C 105.453125 44.246094 105.285156 43.722656 104.863281 43.507812 C 104.441406 43.289062 103.921875 43.457031 103.703125 43.882812 L 101.535156 48.101562 C 100.996094 48.597656 100.496094 49.070312 100.066406 49.476562 C 100.136719 47.222656 100.742188 43.261719 103.269531 41.371094 C 105.753906 39.46875 107.8125 39.066406 109.527344 39.058594 C 110.539062 39.058594 111.425781 39.214844 112.214844 39.324219 C 112.585938 39.375 113.910156 39.691406 115.0625 39.984375 C 116.222656 40.28125 117.265625 40.558594 117.269531 40.5625 L 117.492188 40.589844 C 118.765625 40.59375 119.394531 40.921875 119.730469 41.261719 C 120.070312 41.601562 120.203125 42.0625 120.207031 42.566406 C 120.214844 43 120.027344 43.488281 119.8125 43.859375 C 119.738281 43.992188 119.664062 44.101562 119.597656 44.195312 L 113.167969 44.898438 C 112.933594 44.925781 112.71875 45.046875 112.574219 45.230469 L 108.527344 50.570312 L 106.542969 50.582031 L 106.363281 50.605469 C 106.285156 50.625 105.921875 50.707031 105.519531 51.039062 C 105.113281 51.363281 104.714844 52.007812 104.726562 52.835938 C 104.71875 54.445312 105.273438 55.550781 105.882812 56.1875 C 105.945312 56.257812 106.007812 56.320312 106.070312 56.378906 L 103.433594 59.023438 C 103.023438 58.910156 102.359375 58.683594 101.734375 58.242188 C 100.933594 57.679688 100.203125 56.851562 99.964844 55.402344 C 99.832031 54.566406 99.785156 53.875 99.785156 53.324219 C 99.785156 52.742188 99.835938 52.324219 99.890625 52.03125 C 99.902344 52.023438 99.910156 52.015625 99.921875 52.007812 C 99.921875 52.003906 100.308594 51.628906 100.914062 51.046875 L 104.558594 49.800781 C 105.007812 49.648438 105.246094 49.15625 105.09375 48.710938 Z M 59.886719 138.929688 C 60.371094 139.023438 60.824219 139.066406 61.246094 139.066406 C 62.765625 139.070312 63.871094 138.492188 64.542969 137.898438 C 65.222656 137.3125 65.503906 136.734375 65.535156 136.664062 L 65.539062 136.660156 C 65.542969 136.65625 65.542969 136.652344 65.542969 136.652344 C 65.546875 136.640625 65.554688 136.628906 65.5625 136.605469 L 91.820312 75.195312 C 91.878906 75.605469 91.996094 76.398438 92.109375 76.78125 C 92.515625 83.664062 94.09375 88.488281 95.757812 92.191406 C 96.71875 94.335938 97.695312 95.972656 98.460938 97.125 C 98.84375 97.703125 99.175781 98.164062 99.421875 98.492188 C 99.503906 98.605469 99.578125 98.707031 99.636719 98.785156 L 93.527344 119.902344 C 93.429688 120.234375 93.542969 120.597656 93.816406 120.816406 L 95.269531 121.96875 C 95.269531 121.96875 95.457031 122.140625 95.367188 122.457031 C 95.285156 122.773438 88.570312 147.558594 88.570312 147.558594 L 67.253906 172.03125 C 65.675781 170.722656 61.046875 166.441406 54.933594 156.9375 C 49.601562 148.664062 48.011719 143.449219 48.023438 140.472656 C 48.027344 138.992188 48.394531 138.09375 48.832031 137.535156 C 48.839844 137.53125 48.84375 137.523438 48.851562 137.515625 L 48.871094 137.484375 C 48.898438 137.457031 48.925781 137.421875 48.949219 137.390625 C 49.4375 136.847656 50.035156 136.660156 50.488281 136.660156 C 50.546875 136.660156 50.601562 136.660156 50.652344 136.671875 C 53.023438 136.945312 56.375 138.230469 59.886719 138.929688 Z M 48.402344 115.535156 L 91.023438 72.433594 L 65.472656 132.425781 C 65.09375 131.425781 64.417969 130.328125 63.300781 129.246094 C 60.910156 126.929688 51.0625 117.957031 48.402344 115.535156 Z M 62.097656 130.484375 C 63.855469 132.203125 64.167969 133.695312 64.179688 134.703125 C 64.179688 135.109375 64.117188 135.4375 64.066406 135.652344 C 64.039062 135.761719 64.011719 135.839844 63.992188 135.890625 C 63.988281 135.902344 63.984375 135.914062 63.980469 135.921875 C 63.902344 136.039062 63.214844 137.34375 61.246094 137.34375 C 60.941406 137.34375 60.601562 137.3125 60.21875 137.234375 C 56.882812 136.589844 53.589844 135.296875 50.867188 134.960938 C 50.820312 134.953125 50.769531 134.957031 50.71875 134.949219 L 57.265625 125.976562 C 59.398438 127.941406 61.25 129.664062 62.097656 130.484375 Z M 62.8125 181.328125 C 62.683594 181.21875 62.464844 180.855469 62.574219 180.578125 C 62.621094 180.464844 62.683594 180.34375 62.753906 180.214844 C 63.125 179.523438 63.726562 178.722656 64.230469 178.113281 C 65.121094 180.035156 67.269531 183.75 71.808594 187.761719 C 68.675781 185.816406 65.675781 183.675781 62.8125 181.328125 Z M 195.023438 82.914062 C 190.691406 72.691406 184.511719 63.527344 176.636719 55.648438 C 168.765625 47.785156 159.597656 41.597656 149.382812 37.273438 C 138.808594 32.8125 127.578125 30.550781 116.015625 30.550781 C 104.433594 30.550781 93.203125 32.8125 82.628906 37.273438 C 72.414062 41.597656 63.253906 47.789062 55.371094 55.648438 C 47.503906 63.527344 41.320312 72.691406 37.007812 82.917969 C 32.527344 93.484375 30.257812 104.714844 30.257812 116.273438 C 30.257812 127.863281 32.527344 139.101562 37.011719 149.660156 C 41.320312 159.863281 47.503906 169.042969 55.367188 176.914062 C 63.253906 184.78125 72.414062 190.96875 82.628906 195.289062 C 85.828125 196.644531 89.089844 197.792969 92.398438 198.738281 C 92.429688 198.75 92.453125 198.757812 92.484375 198.769531 C 94.144531 199.289062 95.835938 199.699219 97.53125 200.035156 C 103.558594 201.355469 109.734375 202.027344 116.015625 202.027344 C 119.839844 202.027344 123.628906 201.773438 127.371094 201.28125 C 127.378906 201.28125 127.386719 201.28125 127.398438 201.28125 C 129.578125 201.15625 131.113281 200.824219 132.125 200.515625 C 138.027344 199.390625 143.800781 197.652344 149.382812 195.289062 C 159.597656 190.96875 168.765625 184.78125 176.636719 176.914062 L 176.027344 176.304688 L 176.636719 176.914062 C 184.511719 169.042969 190.691406 159.863281 195.019531 149.660156 C 199.480469 139.101562 201.746094 127.863281 201.746094 116.273438 C 201.746094 104.714844 199.480469 93.484375 195.023438 82.914062 "/>
<path style=" stroke:none;fill-rule:nonzero;fill:rgb(1.727295%,2.270508%,2.323914%);fill-opacity:1;" d="M 17.796875 123.488281 C 18.78125 123.359375 19.628906 123.367188 20.335938 123.515625 C 21.046875 123.667969 21.640625 123.957031 22.132812 124.386719 C 22.621094 124.816406 23.007812 125.390625 23.296875 126.113281 C 23.582031 126.828125 23.792969 127.691406 23.925781 128.707031 C 24.035156 129.570312 24.050781 130.371094 23.960938 131.105469 C 23.867188 131.839844 23.652344 132.480469 23.304688 133.046875 C 22.960938 133.605469 22.476562 134.066406 21.855469 134.433594 C 21.234375 134.792969 19.761719 135.105469 19.761719 135.105469 C 19.621094 135.136719 19.390625 135.175781 19.25 135.191406 L 11.648438 136.1875 C 11.507812 136.203125 11.386719 136.335938 11.378906 136.480469 L 11.3125 137.601562 C 11.304688 137.742188 11.183594 137.878906 11.039062 137.898438 L 10.703125 137.9375 C 10.5625 137.957031 10.433594 137.855469 10.410156 137.714844 L 9.742188 132.597656 C 9.726562 132.453125 9.824219 132.320312 9.96875 132.300781 L 10.304688 132.257812 C 10.445312 132.242188 10.597656 132.339844 10.644531 132.472656 L 10.988281 133.519531 C 11.035156 133.65625 11.1875 133.75 11.332031 133.734375 L 19.835938 132.621094 C 20.878906 132.484375 21.65625 132.070312 22.179688 131.367188 C 22.699219 130.667969 22.878906 129.703125 22.71875 128.472656 C 22.550781 127.203125 22.121094 126.324219 21.421875 125.828125 C 20.726562 125.335938 18.609375 125.351562 18.609375 125.351562 C 18.464844 125.351562 18.230469 125.371094 18.089844 125.390625 L 10.371094 126.398438 C 10.230469 126.417969 10.105469 126.546875 10.097656 126.695312 L 10.03125 127.808594 C 10.023438 127.957031 9.902344 128.085938 9.757812 128.105469 L 9.425781 128.148438 C 9.28125 128.171875 9.152344 128.066406 9.132812 127.921875 L 8.53125 123.335938 C 8.515625 123.191406 8.613281 123.0625 8.757812 123.042969 L 9.089844 123 C 9.234375 122.976562 9.386719 123.074219 9.433594 123.214844 L 9.78125 124.28125 C 9.828125 124.414062 9.980469 124.511719 10.121094 124.492188 L 17.796875 123.488281 "/>
<path style=" stroke:none;fill-rule:nonzero;fill:rgb(1.727295%,2.270508%,2.323914%);fill-opacity:1;" d="M 8.621094 111.589844 C 8.632812 111.445312 8.742188 111.269531 8.863281 111.199219 L 19.597656 104.800781 L 10.617188 104.140625 C 10.472656 104.132812 10.324219 104.234375 10.285156 104.371094 L 9.996094 105.4375 C 9.960938 105.574219 9.8125 105.675781 9.671875 105.667969 L 9.332031 105.644531 C 9.191406 105.628906 9.082031 105.507812 9.09375 105.363281 L 9.425781 100.949219 C 9.4375 100.804688 9.5625 100.699219 9.707031 100.710938 L 10.042969 100.738281 C 10.1875 100.746094 10.316406 100.871094 10.332031 101.011719 L 10.460938 102.128906 C 10.472656 102.273438 10.605469 102.394531 10.746094 102.410156 L 23.46875 103.375 C 23.609375 103.382812 23.71875 103.511719 23.710938 103.652344 L 23.613281 104.90625 C 23.601562 105.050781 23.492188 105.226562 23.367188 105.300781 L 10.96875 112.570312 L 21.417969 113.359375 C 21.558594 113.375 21.707031 113.269531 21.746094 113.132812 L 22.035156 112.070312 C 22.070312 111.929688 22.21875 111.824219 22.363281 111.839844 L 22.699219 111.863281 C 22.839844 111.871094 22.949219 111.996094 22.941406 112.140625 L 22.605469 116.554688 C 22.59375 116.695312 22.46875 116.804688 22.324219 116.796875 L 21.988281 116.769531 C 21.84375 116.761719 21.714844 116.632812 21.699219 116.488281 L 21.574219 115.375 C 21.558594 115.234375 21.429688 115.105469 21.285156 115.097656 L 9.851562 114.230469 C 9.707031 114.21875 9.5625 114.324219 9.523438 114.464844 L 9.230469 115.546875 C 9.195312 115.679688 9.046875 115.789062 8.902344 115.773438 L 8.566406 115.753906 C 8.421875 115.742188 8.316406 115.613281 8.324219 115.472656 L 8.621094 111.589844 "/>
<path style=" stroke:none;fill-rule:nonzero;fill:rgb(1.727295%,2.270508%,2.323914%);fill-opacity:1;" d="M 13.027344 87.769531 C 13.167969 87.800781 13.273438 87.949219 13.265625 88.089844 L 13.207031 89.191406 C 13.199219 89.335938 13.304688 89.484375 13.445312 89.515625 L 24.570312 92.292969 C 24.710938 92.332031 24.871094 92.25 24.933594 92.125 L 25.398438 91.121094 C 25.457031 90.992188 25.621094 90.914062 25.761719 90.949219 L 26.089844 91.03125 C 26.226562 91.070312 26.3125 91.210938 26.277344 91.347656 L 25.027344 96.355469 C 24.992188 96.492188 24.847656 96.578125 24.714844 96.542969 L 24.382812 96.460938 C 24.242188 96.425781 24.136719 96.28125 24.144531 96.136719 L 24.203125 95.039062 C 24.214844 94.894531 24.105469 94.75 23.964844 94.714844 L 12.839844 91.9375 C 12.703125 91.898438 12.539062 91.976562 12.480469 92.105469 L 12.011719 93.109375 C 11.953125 93.234375 11.789062 93.316406 11.652344 93.28125 L 11.324219 93.195312 C 11.183594 93.164062 11.097656 93.023438 11.132812 92.886719 L 12.382812 87.878906 C 12.417969 87.734375 12.5625 87.652344 12.699219 87.6875 L 13.027344 87.769531 "/>
<path style=" stroke:none;fill-rule:nonzero;fill:rgb(1.727295%,2.270508%,2.323914%);fill-opacity:1;" d="M 30.460938 79.324219 C 30.5625 79.425781 30.601562 79.613281 30.546875 79.746094 L 29.941406 81.164062 C 29.886719 81.296875 29.722656 81.398438 29.578125 81.390625 L 16.074219 80.476562 C 15.933594 80.464844 15.742188 80.554688 15.660156 80.667969 L 15.164062 81.347656 C 15.078125 81.464844 14.90625 81.515625 14.773438 81.460938 L 14.460938 81.324219 C 14.328125 81.273438 14.265625 81.117188 14.324219 80.984375 L 16.175781 76.628906 C 16.230469 76.5 16.386719 76.4375 16.515625 76.492188 L 16.828125 76.625 C 16.960938 76.679688 17.046875 76.839844 17.019531 76.984375 L 16.863281 77.851562 C 16.835938 77.992188 16.929688 78.113281 17.074219 78.128906 L 27.921875 78.96875 L 19.957031 71.34375 C 19.851562 71.25 19.703125 71.265625 19.621094 71.382812 L 19.023438 72.261719 C 18.941406 72.378906 18.769531 72.429688 18.636719 72.375 L 18.324219 72.242188 C 18.195312 72.1875 18.132812 72.03125 18.1875 71.902344 L 19.855469 67.980469 C 19.914062 67.847656 20.066406 67.785156 20.199219 67.84375 L 20.511719 67.976562 C 20.640625 68.03125 20.726562 68.191406 20.695312 68.332031 L 20.484375 69.351562 C 20.457031 69.492188 20.515625 69.6875 20.617188 69.785156 L 30.460938 79.324219 "/>
<path style=" stroke:none;fill-rule:nonzero;fill:rgb(1.727295%,2.270508%,2.323914%);fill-opacity:1;" d="M 57.59375 42.261719 C 57.921875 42.175781 58.257812 42.046875 58.609375 41.882812 C 58.960938 41.71875 59.246094 41.550781 59.464844 41.390625 C 60.242188 40.8125 60.726562 40.195312 60.917969 39.539062 C 61.109375 38.878906 60.972656 38.238281 60.511719 37.613281 C 60.234375 37.242188 59.917969 36.984375 59.558594 36.839844 C 59.199219 36.699219 58.820312 36.625 58.414062 36.617188 C 58.011719 36.613281 57.59375 36.648438 57.164062 36.730469 C 56.734375 36.8125 56.300781 36.882812 55.875 36.945312 C 55.226562 37.03125 54.640625 37.109375 54.113281 37.179688 C 53.589844 37.246094 53.105469 37.253906 52.671875 37.199219 C 52.234375 37.152344 51.835938 37.019531 51.464844 36.808594 C 51.097656 36.597656 50.746094 36.269531 50.414062 35.816406 C 50.050781 35.324219 49.832031 34.8125 49.761719 34.277344 C 49.6875 33.75 49.746094 33.210938 49.933594 32.675781 C 50.121094 32.136719 50.429688 31.609375 50.863281 31.082031 C 51.300781 30.558594 51.839844 30.058594 52.488281 29.578125 C 52.726562 29.398438 53 29.222656 53.304688 29.050781 C 53.605469 28.878906 53.917969 28.710938 54.234375 28.550781 C 54.550781 28.398438 54.863281 28.253906 55.175781 28.125 C 55.484375 27.996094 55.773438 27.90625 55.773438 27.90625 C 55.910156 27.867188 56.050781 27.851562 56.085938 27.882812 C 56.121094 27.910156 56.210938 28.039062 56.28125 28.160156 L 57.367188 30.074219 C 57.4375 30.199219 57.398438 30.371094 57.285156 30.457031 L 56.570312 30.988281 C 56.457031 31.070312 56.269531 31.066406 56.160156 30.972656 L 54.828125 29.855469 C 54.59375 29.863281 54.320312 29.925781 54.003906 30.050781 C 53.6875 30.171875 53.34375 30.367188 52.96875 30.644531 C 52.300781 31.140625 51.886719 31.6875 51.722656 32.292969 C 51.558594 32.898438 51.679688 33.472656 52.085938 34.019531 C 52.347656 34.375 52.625 34.613281 52.929688 34.746094 C 53.230469 34.878906 53.550781 34.949219 53.890625 34.949219 C 54.234375 34.953125 54.589844 34.917969 54.953125 34.839844 C 55.320312 34.765625 55.699219 34.691406 56.089844 34.621094 C 56.628906 34.550781 57.1875 34.460938 57.773438 34.355469 C 58.359375 34.257812 58.929688 34.21875 59.480469 34.242188 C 60.03125 34.265625 60.550781 34.378906 61.039062 34.578125 C 61.523438 34.777344 61.941406 35.136719 62.292969 35.660156 C 62.742188 36.328125 62.992188 36.96875 63.050781 37.578125 C 63.113281 38.1875 63.03125 38.769531 62.808594 39.324219 C 62.582031 39.878906 62.222656 40.417969 61.734375 40.933594 C 61.242188 41.449219 60.667969 41.949219 60.011719 42.4375 C 59.417969 42.871094 58.800781 43.25 58.152344 43.570312 C 57.507812 43.886719 56.664062 44.226562 56.664062 44.226562 C 56.535156 44.277344 56.398438 44.296875 56.367188 44.261719 C 56.335938 44.234375 56.253906 44.101562 56.179688 43.980469 L 55.082031 42.078125 C 55.011719 41.953125 55.046875 41.78125 55.160156 41.695312 L 55.878906 41.164062 C 55.992188 41.078125 56.175781 41.089844 56.285156 41.179688 L 57.59375 42.261719 "/>
<path style=" stroke:none;fill-rule:nonzero;fill:rgb(1.727295%,2.270508%,2.323914%);fill-opacity:1;" d="M 67.875 21.117188 C 67.941406 21.246094 67.90625 21.421875 67.796875 21.511719 L 66.941406 22.207031 C 66.832031 22.300781 66.792969 22.476562 66.863281 22.601562 L 72.289062 32.703125 C 72.359375 32.832031 72.527344 32.898438 72.660156 32.855469 L 73.714844 32.523438 C 73.851562 32.484375 74.019531 32.550781 74.089844 32.679688 L 74.246094 32.976562 C 74.316406 33.101562 74.265625 33.257812 74.140625 33.328125 L 69.59375 35.773438 C 69.46875 35.839844 69.308594 35.792969 69.242188 35.664062 L 69.082031 35.367188 C 69.011719 35.242188 69.050781 35.0625 69.160156 34.972656 L 70.015625 34.277344 C 70.128906 34.1875 70.160156 34.011719 70.09375 33.882812 L 64.664062 23.785156 C 64.597656 23.65625 64.429688 23.589844 64.292969 23.632812 L 63.242188 23.960938 C 63.105469 24.003906 62.9375 23.933594 62.867188 23.808594 L 62.710938 23.511719 C 62.640625 23.382812 62.6875 23.222656 62.8125 23.15625 L 67.359375 20.710938 C 67.488281 20.644531 67.644531 20.695312 67.714844 20.820312 L 67.875 21.117188 "/>
<path style=" stroke:none;fill-rule:nonzero;fill:rgb(1.727295%,2.270508%,2.323914%);fill-opacity:1;" d="M 73.523438 17.816406 C 73.550781 17.734375 73.6875 17.628906 73.820312 17.578125 L 84.433594 13.71875 C 84.570312 13.671875 84.734375 13.648438 84.804688 13.671875 C 84.871094 13.695312 84.96875 13.820312 85.023438 13.957031 L 85.9375 16.226562 C 85.992188 16.359375 85.925781 16.507812 85.789062 16.554688 L 84.9375 16.867188 C 84.800781 16.914062 84.625 16.859375 84.546875 16.738281 L 83.800781 15.632812 C 83.71875 15.515625 83.539062 15.449219 83.402344 15.492188 L 82.292969 15.820312 C 82.15625 15.859375 81.933594 15.933594 81.800781 15.984375 L 80.722656 16.375 L 84.703125 27.34375 C 84.757812 27.476562 84.910156 27.570312 85.050781 27.542969 L 86.140625 27.367188 C 86.28125 27.347656 86.4375 27.4375 86.484375 27.574219 L 86.601562 27.894531 C 86.652344 28.027344 86.582031 28.175781 86.445312 28.226562 L 81.597656 29.988281 C 81.460938 30.039062 81.3125 29.96875 81.261719 29.832031 L 81.148438 29.511719 C 81.097656 29.378906 81.15625 29.210938 81.28125 29.136719 L 82.226562 28.570312 C 82.351562 28.496094 82.410156 28.324219 82.363281 28.191406 L 78.371094 17.226562 L 77.296875 17.621094 C 77.160156 17.671875 76.941406 17.757812 76.808594 17.816406 L 75.75 18.277344 C 75.617188 18.332031 75.519531 18.496094 75.535156 18.640625 L 75.675781 19.964844 C 75.691406 20.109375 75.59375 20.265625 75.457031 20.316406 L 74.601562 20.625 C 74.46875 20.671875 74.320312 20.601562 74.277344 20.464844 L 73.546875 18.214844 C 73.503906 18.078125 73.492188 17.902344 73.523438 17.816406 "/>
<path style=" stroke:none;fill-rule:nonzero;fill:rgb(1.727295%,2.270508%,2.323914%);fill-opacity:1;" d="M 96.058594 13.074219 L 94.972656 19.105469 L 98.972656 18.351562 Z M 99.507812 19.3125 L 94.765625 20.210938 L 94.035156 24.554688 C 94.011719 24.691406 94.109375 24.8125 94.253906 24.816406 L 95.234375 24.832031 C 95.378906 24.835938 95.515625 24.953125 95.542969 25.09375 L 95.605469 25.425781 C 95.632812 25.566406 95.539062 25.703125 95.398438 25.730469 L 91.25 26.515625 C 91.109375 26.539062 90.972656 26.445312 90.945312 26.304688 L 90.882812 25.972656 C 90.855469 25.832031 90.941406 25.671875 91.074219 25.617188 L 91.921875 25.257812 C 92.058594 25.199219 92.183594 25.039062 92.214844 24.898438 L 94.828125 11.261719 C 94.859375 11.121094 94.996094 10.984375 95.132812 10.957031 L 96.953125 10.613281 C 97.09375 10.589844 97.265625 10.667969 97.335938 10.792969 L 104.085938 22.652344 C 104.15625 22.777344 104.332031 22.882812 104.476562 22.886719 L 105.375 22.914062 C 105.519531 22.921875 105.660156 23.039062 105.683594 23.179688 L 105.746094 23.511719 C 105.773438 23.652344 105.679688 23.789062 105.539062 23.8125 L 100.789062 24.714844 C 100.648438 24.738281 100.511719 24.644531 100.484375 24.507812 L 100.425781 24.171875 C 100.394531 24.027344 100.480469 23.871094 100.613281 23.8125 L 101.464844 23.453125 C 101.59375 23.398438 101.648438 23.25 101.578125 23.125 L 99.507812 19.3125 "/>
<path style=" stroke:none;fill-rule:nonzero;fill:rgb(1.727295%,2.270508%,2.323914%);fill-opacity:1;" d="M 112.636719 22.238281 C 112.949219 22.359375 113.300781 22.457031 113.679688 22.527344 C 114.0625 22.601562 114.390625 22.636719 114.660156 22.636719 C 115.628906 22.632812 116.382812 22.421875 116.929688 22.003906 C 117.46875 21.585938 117.738281 20.988281 117.738281 20.210938 C 117.734375 19.746094 117.632812 19.351562 117.425781 19.027344 C 117.21875 18.695312 116.957031 18.410156 116.632812 18.167969 C 116.3125 17.921875 115.953125 17.710938 115.558594 17.519531 C 115.164062 17.328125 114.773438 17.132812 114.390625 16.929688 C 113.816406 16.617188 113.300781 16.335938 112.835938 16.074219 C 112.371094 15.820312 111.976562 15.542969 111.65625 15.242188 C 111.335938 14.945312 111.089844 14.601562 110.914062 14.214844 C 110.742188 13.824219 110.65625 13.355469 110.652344 12.792969 C 110.648438 12.179688 110.777344 11.636719 111.035156 11.164062 C 111.289062 10.695312 111.652344 10.296875 112.125 9.976562 C 112.589844 9.652344 113.15625 9.40625 113.816406 9.238281 C 114.476562 9.074219 115.207031 8.988281 116.011719 8.984375 C 116.3125 8.984375 116.636719 9.003906 116.984375 9.042969 C 117.332031 9.078125 117.679688 9.132812 118.027344 9.191406 C 118.375 9.253906 118.714844 9.320312 119.039062 9.398438 C 119.367188 9.480469 119.652344 9.578125 119.652344 9.578125 C 119.785156 9.625 119.90625 9.703125 119.921875 9.742188 C 119.929688 9.789062 119.925781 9.945312 119.910156 10.089844 L 119.65625 12.269531 C 119.640625 12.414062 119.507812 12.53125 119.363281 12.53125 L 118.476562 12.535156 C 118.332031 12.535156 118.1875 12.421875 118.152344 12.28125 L 117.738281 10.59375 C 117.546875 10.460938 117.285156 10.347656 116.957031 10.261719 C 116.632812 10.175781 116.234375 10.128906 115.773438 10.132812 C 114.941406 10.136719 114.28125 10.335938 113.792969 10.722656 C 113.304688 11.113281 113.058594 11.648438 113.0625 12.332031 C 113.066406 12.769531 113.148438 13.132812 113.3125 13.417969 C 113.476562 13.699219 113.695312 13.945312 113.972656 14.148438 C 114.246094 14.351562 114.550781 14.53125 114.890625 14.6875 C 115.234375 14.84375 115.582031 15.007812 115.9375 15.183594 C 116.414062 15.441406 116.921875 15.703125 117.453125 15.96875 C 117.984375 16.230469 118.46875 16.535156 118.898438 16.878906 C 119.328125 17.226562 119.683594 17.625 119.953125 18.074219 C 120.230469 18.519531 120.355469 19.058594 120.328125 19.6875 C 120.292969 20.492188 120.117188 21.15625 119.808594 21.683594 C 119.496094 22.210938 119.089844 22.628906 118.578125 22.945312 C 118.070312 23.265625 117.464844 23.484375 116.761719 23.609375 C 116.058594 23.734375 115.300781 23.800781 114.484375 23.800781 C 113.746094 23.808594 113.023438 23.746094 112.316406 23.617188 C 111.605469 23.492188 110.726562 23.273438 110.726562 23.273438 C 110.589844 23.234375 110.46875 23.171875 110.464844 23.125 C 110.457031 23.082031 110.464844 22.929688 110.480469 22.785156 L 110.71875 20.601562 C 110.734375 20.460938 110.863281 20.339844 111.007812 20.339844 L 111.898438 20.335938 C 112.039062 20.335938 112.1875 20.449219 112.222656 20.585938 L 112.636719 22.238281 "/>
<path style=" stroke:none;fill-rule:nonzero;fill:rgb(1.727295%,2.270508%,2.323914%);fill-opacity:1;" d="M 150.980469 17.734375 C 150.601562 16.535156 149.769531 15.730469 148.488281 15.3125 C 147.191406 14.894531 146.039062 15.046875 145.03125 15.765625 C 144.027344 16.484375 143.195312 17.855469 142.539062 19.878906 C 141.875 21.929688 141.726562 23.554688 142.101562 24.75 C 142.472656 25.945312 143.304688 26.753906 144.601562 27.171875 C 145.898438 27.59375 147.050781 27.441406 148.054688 26.722656 C 149.0625 26 149.894531 24.628906 150.550781 22.605469 C 151.214844 20.558594 151.355469 18.933594 150.980469 17.734375 Z M 149.691406 28.039062 C 148.132812 28.875 146.289062 28.945312 144.164062 28.257812 C 143.140625 27.925781 142.273438 27.480469 141.566406 26.921875 C 140.859375 26.363281 140.320312 25.699219 139.953125 24.933594 C 139.589844 24.171875 139.398438 23.308594 139.382812 22.351562 C 139.375 21.394531 139.550781 20.351562 139.914062 19.222656 C 140.296875 18.042969 140.789062 17.058594 141.390625 16.261719 C 141.992188 15.46875 142.679688 14.867188 143.449219 14.457031 C 144.21875 14.042969 145.066406 13.820312 145.984375 13.78125 C 146.90625 13.746094 147.875 13.890625 148.886719 14.21875 C 149.898438 14.542969 150.757812 14.988281 151.472656 15.550781 C 152.183594 16.109375 152.730469 16.777344 153.101562 17.550781 C 153.472656 18.324219 153.667969 19.195312 153.683594 20.160156 C 153.699219 21.125 153.523438 22.179688 153.152344 23.320312 C 152.40625 25.632812 151.253906 27.203125 149.691406 28.039062 "/>
<path style=" stroke:none;fill-rule:nonzero;fill:rgb(1.727295%,2.270508%,2.323914%);fill-opacity:1;" d="M 158.101562 32.246094 C 158.316406 32.503906 158.574219 32.757812 158.875 33.003906 C 159.175781 33.253906 159.441406 33.441406 159.683594 33.570312 C 160.53125 34.03125 161.296875 34.210938 161.972656 34.105469 C 162.648438 34 163.175781 33.601562 163.546875 32.921875 C 163.765625 32.511719 163.867188 32.117188 163.84375 31.730469 C 163.820312 31.347656 163.722656 30.972656 163.5625 30.601562 C 163.398438 30.234375 163.1875 29.871094 162.929688 29.515625 C 162.675781 29.15625 162.425781 28.800781 162.1875 28.4375 C 161.835938 27.890625 161.519531 27.390625 161.234375 26.941406 C 160.953125 26.492188 160.738281 26.0625 160.601562 25.644531 C 160.464844 25.226562 160.414062 24.808594 160.449219 24.382812 C 160.484375 23.960938 160.636719 23.503906 160.902344 23.015625 C 161.195312 22.476562 161.566406 22.058594 162.019531 21.769531 C 162.46875 21.480469 162.980469 21.304688 163.546875 21.246094 C 164.113281 21.191406 164.722656 21.246094 165.382812 21.421875 C 166.042969 21.59375 166.722656 21.867188 167.429688 22.253906 C 167.695312 22.394531 167.96875 22.566406 168.257812 22.769531 C 168.542969 22.96875 168.824219 23.183594 169.097656 23.398438 C 169.375 23.621094 169.636719 23.847656 169.886719 24.070312 C 170.132812 24.300781 170.339844 24.523438 170.339844 24.523438 C 170.433594 24.628906 170.503906 24.75 170.488281 24.796875 C 170.480469 24.84375 170.402344 24.976562 170.320312 25.09375 L 169.046875 26.882812 C 168.964844 27 168.789062 27.039062 168.664062 26.976562 L 167.882812 26.546875 C 167.757812 26.480469 167.683594 26.3125 167.722656 26.171875 L 168.171875 24.492188 C 168.066406 24.28125 167.894531 24.058594 167.648438 23.824219 C 167.402344 23.589844 167.078125 23.363281 166.671875 23.140625 C 165.9375 22.746094 165.265625 22.601562 164.648438 22.710938 C 164.03125 22.816406 163.5625 23.171875 163.234375 23.769531 C 163.027344 24.152344 162.925781 24.507812 162.933594 24.839844 C 162.941406 25.171875 163.015625 25.488281 163.15625 25.800781 C 163.300781 26.105469 163.484375 26.410156 163.707031 26.714844 C 163.933594 27.011719 164.160156 27.324219 164.382812 27.652344 C 164.679688 28.105469 164.996094 28.578125 165.335938 29.0625 C 165.675781 29.554688 165.953125 30.050781 166.164062 30.5625 C 166.375 31.070312 166.492188 31.589844 166.519531 32.113281 C 166.542969 32.640625 166.394531 33.175781 166.070312 33.710938 C 165.648438 34.398438 165.179688 34.898438 164.652344 35.210938 C 164.128906 35.519531 163.5625 35.691406 162.964844 35.726562 C 162.367188 35.757812 161.730469 35.660156 161.054688 35.433594 C 160.378906 35.207031 159.683594 34.898438 158.964844 34.507812 C 158.316406 34.15625 157.714844 33.757812 157.152344 33.304688 C 156.589844 32.851562 155.925781 32.234375 155.925781 32.234375 C 155.820312 32.136719 155.75 32.023438 155.765625 31.980469 C 155.78125 31.9375 155.863281 31.804688 155.945312 31.691406 L 157.203125 29.886719 C 157.285156 29.773438 157.457031 29.734375 157.585938 29.800781 L 158.363281 30.226562 C 158.492188 30.292969 158.5625 30.464844 158.527344 30.601562 L 158.101562 32.246094 "/>
<path style=" stroke:none;fill-rule:nonzero;fill:rgb(1.727295%,2.270508%,2.323914%);fill-opacity:1;" d="M 172.996094 41.644531 C 172.90625 41.757812 172.929688 41.921875 173.042969 42.011719 L 174.804688 43.394531 C 174.917969 43.484375 175.105469 43.621094 175.222656 43.699219 L 176.160156 44.347656 C 176.277344 44.425781 176.464844 44.421875 176.578125 44.332031 L 177.726562 43.40625 C 177.835938 43.316406 178.019531 43.316406 178.132812 43.402344 L 178.847656 43.964844 C 178.960938 44.050781 178.980469 44.214844 178.886719 44.324219 L 177.363281 46.132812 C 177.269531 46.242188 177.152344 46.371094 177.105469 46.414062 C 177.050781 46.464844 176.917969 46.429688 176.804688 46.339844 L 169.171875 40.355469 C 169.058594 40.265625 169.039062 40.105469 169.128906 39.988281 L 169.335938 39.726562 C 169.425781 39.613281 169.605469 39.574219 169.730469 39.640625 L 170.710938 40.140625 C 170.839844 40.207031 171.015625 40.171875 171.101562 40.058594 L 178.179688 31.03125 C 178.265625 30.921875 178.261719 30.738281 178.167969 30.632812 L 177.445312 29.796875 C 177.351562 29.691406 177.34375 29.507812 177.433594 29.394531 L 177.640625 29.132812 C 177.730469 29.019531 177.894531 28.996094 178.007812 29.085938 L 182.050781 32.257812 C 182.164062 32.347656 182.183594 32.511719 182.097656 32.625 L 181.886719 32.890625 C 181.800781 33.003906 181.625 33.039062 181.496094 32.976562 L 180.515625 32.472656 C 180.386719 32.40625 180.210938 32.445312 180.121094 32.558594 L 172.996094 41.644531 "/>
<path style=" stroke:none;fill-rule:nonzero;fill:rgb(1.727295%,2.270508%,2.323914%);fill-opacity:1;" d="M 196.289062 49.5 C 196.574219 48.277344 196.269531 47.160156 195.378906 46.148438 C 194.476562 45.128906 193.410156 44.671875 192.175781 44.773438 C 190.945312 44.882812 189.527344 45.640625 187.933594 47.046875 C 186.316406 48.472656 185.363281 49.796875 185.074219 51.011719 C 184.785156 52.230469 185.089844 53.351562 185.992188 54.375 C 186.894531 55.394531 187.960938 55.851562 189.195312 55.746094 C 190.429688 55.640625 191.84375 54.882812 193.4375 53.476562 C 195.054688 52.050781 196.003906 50.726562 196.289062 49.5 Z M 189.929688 57.710938 C 188.164062 57.636719 186.542969 56.757812 185.066406 55.082031 C 184.351562 54.273438 183.835938 53.453125 183.511719 52.609375 C 183.1875 51.769531 183.0625 50.925781 183.132812 50.082031 C 183.207031 49.234375 183.480469 48.398438 183.960938 47.566406 C 184.4375 46.738281 185.121094 45.929688 186.011719 45.148438 C 186.941406 44.324219 187.867188 43.722656 188.789062 43.347656 C 189.710938 42.972656 190.609375 42.804688 191.480469 42.84375 C 192.351562 42.882812 193.195312 43.121094 194.007812 43.558594 C 194.820312 43.996094 195.578125 44.613281 196.277344 45.410156 C 196.984375 46.207031 197.5 47.027344 197.828125 47.871094 C 198.15625 48.71875 198.28125 49.570312 198.210938 50.425781 C 198.136719 51.28125 197.859375 52.128906 197.382812 52.96875 C 196.902344 53.808594 196.214844 54.621094 195.3125 55.417969 C 193.492188 57.023438 191.699219 57.785156 189.929688 57.710938 "/>
<path style=" stroke:none;fill-rule:nonzero;fill:rgb(1.727295%,2.270508%,2.323914%);fill-opacity:1;" d="M 202.148438 66.707031 C 202.257812 66.617188 202.289062 66.441406 202.214844 66.316406 L 200.660156 63.675781 L 195.550781 66.757812 L 197.222656 69.570312 C 197.296875 69.691406 197.421875 69.886719 197.5 70.007812 L 198.140625 70.945312 C 198.222656 71.066406 198.398438 71.125 198.535156 71.082031 L 199.933594 70.617188 C 200.066406 70.574219 200.238281 70.640625 200.3125 70.761719 L 200.789062 71.5625 C 200.859375 71.683594 200.816406 71.84375 200.691406 71.910156 L 198.617188 73.050781 C 198.492188 73.117188 198.335938 73.191406 198.269531 73.21875 C 198.207031 73.242188 198.09375 73.160156 198.023438 73.039062 L 192.652344 63.996094 C 192.578125 63.875 192.621094 63.714844 192.742188 63.640625 L 193.035156 63.464844 C 193.15625 63.390625 193.335938 63.417969 193.429688 63.527344 L 194.164062 64.355469 C 194.257812 64.460938 194.4375 64.488281 194.558594 64.414062 L 204.421875 58.558594 C 204.542969 58.484375 204.601562 58.316406 204.554688 58.179688 L 204.179688 57.144531 C 204.132812 57.007812 204.195312 56.839844 204.316406 56.765625 L 204.605469 56.59375 C 204.730469 56.519531 204.890625 56.558594 204.964844 56.683594 L 210.085938 65.304688 C 210.15625 65.425781 210.210938 65.589844 210.203125 65.667969 C 210.199219 65.742188 210.09375 65.867188 209.972656 65.945312 L 207.910156 67.265625 C 207.792969 67.34375 207.632812 67.308594 207.558594 67.179688 L 207.09375 66.398438 C 207.023438 66.277344 207.046875 66.09375 207.152344 66 L 208.265625 64.945312 C 208.371094 64.847656 208.402344 64.660156 208.339844 64.535156 L 207.808594 63.503906 C 207.742188 63.378906 207.628906 63.171875 207.554688 63.050781 L 206.050781 60.496094 L 201.53125 63.195312 L 203.089844 65.820312 C 203.160156 65.945312 203.332031 66.007812 203.464844 65.953125 L 204.496094 65.566406 C 204.628906 65.515625 204.800781 65.578125 204.871094 65.703125 L 205.261719 66.359375 C 205.335938 66.484375 205.292969 66.644531 205.171875 66.71875 L 201.839844 68.695312 C 201.714844 68.769531 201.554688 68.730469 201.480469 68.605469 L 201.089844 67.949219 C 201.015625 67.824219 201.046875 67.644531 201.15625 67.554688 L 202.148438 66.707031 "/>
<path style=" stroke:none;fill-rule:nonzero;fill:rgb(1.727295%,2.270508%,2.323914%);fill-opacity:1;" d="M 33.183594 60.597656 C 33.050781 60.542969 32.878906 60.59375 32.800781 60.714844 L 31.117188 63.273438 L 36.136719 66.5 L 37.921875 63.757812 C 38 63.640625 38.121094 63.4375 38.191406 63.3125 L 38.753906 62.324219 C 38.824219 62.199219 38.800781 62.011719 38.699219 61.914062 L 37.671875 60.859375 C 37.570312 60.761719 37.554688 60.578125 37.628906 60.460938 L 38.140625 59.679688 C 38.21875 59.558594 38.375 59.527344 38.492188 59.609375 L 40.429688 60.972656 C 40.546875 61.054688 40.683594 61.160156 40.734375 61.207031 C 40.785156 61.253906 40.761719 61.390625 40.683594 61.511719 L 34.941406 70.320312 C 34.863281 70.4375 34.699219 70.472656 34.582031 70.394531 L 34.296875 70.210938 C 34.175781 70.132812 34.121094 69.960938 34.175781 69.828125 L 34.59375 68.804688 C 34.648438 68.671875 34.59375 68.5 34.472656 68.421875 L 24.867188 62.160156 C 24.746094 62.082031 24.566406 62.105469 24.46875 62.203125 L 23.703125 62.996094 C 23.601562 63.101562 23.421875 63.121094 23.300781 63.042969 L 23.019531 62.859375 C 22.902344 62.777344 22.863281 62.617188 22.941406 62.496094 L 28.417969 54.097656 C 28.496094 53.980469 28.617188 53.859375 28.691406 53.832031 C 28.761719 53.804688 28.921875 53.84375 29.042969 53.917969 L 31.140625 55.183594 C 31.261719 55.257812 31.296875 55.414062 31.21875 55.535156 L 30.722656 56.296875 C 30.644531 56.417969 30.46875 56.472656 30.335938 56.425781 L 28.898438 55.890625 C 28.765625 55.839844 28.585938 55.890625 28.5 56.007812 L 27.808594 56.9375 C 27.722656 57.050781 27.589844 57.242188 27.511719 57.363281 L 25.886719 59.839844 L 30.304688 62.703125 L 31.972656 60.148438 C 32.050781 60.027344 32.027344 59.851562 31.925781 59.753906 L 31.121094 58.996094 C 31.019531 58.898438 30.996094 58.71875 31.074219 58.601562 L 31.492188 57.960938 C 31.570312 57.839844 31.734375 57.804688 31.855469 57.882812 L 35.101562 60 C 35.222656 60.078125 35.257812 60.238281 35.179688 60.359375 L 34.761719 61.003906 C 34.683594 61.125 34.511719 61.175781 34.378906 61.117188 L 33.183594 60.597656 "/>
<path style=" stroke:none;fill-rule:nonzero;fill:rgb(1.727295%,2.270508%,2.323914%);fill-opacity:1;" d="M 215.898438 77.976562 C 215.941406 78.109375 215.914062 78.316406 215.828125 78.433594 L 208.507812 88.570312 L 217.023438 85.605469 C 217.160156 85.558594 217.257812 85.402344 217.234375 85.261719 L 217.078125 84.167969 C 217.054688 84.027344 217.152344 83.875 217.285156 83.828125 L 217.605469 83.71875 C 217.742188 83.667969 217.890625 83.742188 217.9375 83.878906 L 219.382812 88.058594 C 219.429688 88.195312 219.355469 88.34375 219.222656 88.394531 L 218.902344 88.5 C 218.769531 88.546875 218.597656 88.484375 218.527344 88.359375 L 217.96875 87.386719 C 217.898438 87.261719 217.726562 87.195312 217.59375 87.246094 L 205.535156 91.414062 C 205.402344 91.464844 205.253906 91.390625 205.207031 91.257812 L 204.796875 90.066406 C 204.746094 89.929688 204.777344 89.726562 204.863281 89.609375 L 213.359375 78 L 203.449219 81.429688 C 203.3125 81.480469 203.222656 81.632812 203.238281 81.773438 L 203.398438 82.867188 C 203.417969 83.011719 203.324219 83.164062 203.1875 83.210938 L 202.867188 83.316406 C 202.734375 83.367188 202.582031 83.292969 202.535156 83.160156 L 201.089844 78.976562 C 201.042969 78.84375 201.117188 78.691406 201.25 78.644531 L 201.570312 78.535156 C 201.707031 78.488281 201.875 78.550781 201.945312 78.675781 L 202.503906 79.648438 C 202.578125 79.773438 202.746094 79.835938 202.882812 79.789062 L 213.71875 76.039062 C 213.851562 75.996094 213.945312 75.84375 213.925781 75.699219 L 213.765625 74.589844 C 213.742188 74.449219 213.839844 74.292969 213.972656 74.246094 L 214.292969 74.132812 C 214.429688 74.089844 214.578125 74.160156 214.621094 74.296875 L 215.898438 77.976562 "/>
<path style=" stroke:none;fill-rule:nonzero;fill:rgb(1.727295%,2.270508%,2.323914%);fill-opacity:1;" d="M 208.371094 99.910156 C 208.296875 100.234375 208.246094 100.589844 208.226562 100.980469 C 208.207031 101.367188 208.21875 101.699219 208.257812 101.96875 C 208.394531 102.921875 208.707031 103.640625 209.195312 104.121094 C 209.6875 104.605469 210.316406 104.789062 211.085938 104.679688 C 211.546875 104.613281 211.921875 104.453125 212.214844 104.199219 C 212.511719 103.953125 212.757812 103.652344 212.953125 103.304688 C 213.152344 102.953125 213.316406 102.566406 213.449219 102.148438 C 213.582031 101.730469 213.722656 101.316406 213.871094 100.910156 C 214.097656 100.300781 214.308594 99.746094 214.5 99.25 C 214.691406 98.753906 214.910156 98.328125 215.160156 97.964844 C 215.414062 97.609375 215.71875 97.316406 216.082031 97.089844 C 216.441406 96.871094 216.898438 96.71875 217.453125 96.636719 C 218.058594 96.550781 218.613281 96.601562 219.117188 96.789062 C 219.617188 96.976562 220.0625 97.285156 220.445312 97.703125 C 220.832031 98.121094 221.152344 98.648438 221.40625 99.277344 C 221.664062 99.910156 221.847656 100.621094 221.964844 101.421875 C 222.007812 101.71875 222.03125 102.039062 222.039062 102.386719 C 222.050781 102.734375 222.050781 103.085938 222.039062 103.441406 C 222.027344 103.792969 222.003906 104.136719 221.96875 104.472656 C 221.933594 104.808594 221.878906 105.105469 221.878906 105.105469 C 221.851562 105.246094 221.792969 105.378906 221.75 105.394531 C 221.707031 105.410156 221.554688 105.429688 221.410156 105.429688 L 219.214844 105.480469 C 219.070312 105.484375 218.933594 105.371094 218.914062 105.226562 L 218.789062 104.347656 C 218.769531 104.203125 218.859375 104.046875 218.992188 103.992188 L 220.609375 103.347656 C 220.714844 103.140625 220.789062 102.871094 220.832031 102.53125 C 220.875 102.195312 220.859375 101.796875 220.792969 101.335938 C 220.675781 100.515625 220.390625 99.886719 219.933594 99.457031 C 219.480469 99.027344 218.914062 98.863281 218.238281 98.960938 C 217.808594 99.023438 217.464844 99.152344 217.203125 99.359375 C 216.941406 99.5625 216.730469 99.8125 216.566406 100.109375 C 216.402344 100.40625 216.265625 100.738281 216.160156 101.097656 C 216.054688 101.453125 215.9375 101.824219 215.8125 102.199219 C 215.625 102.710938 215.4375 103.246094 215.25 103.808594 C 215.058594 104.371094 214.828125 104.890625 214.542969 105.367188 C 214.261719 105.839844 213.914062 106.242188 213.507812 106.578125 C 213.101562 106.910156 212.585938 107.113281 211.960938 107.171875 C 211.160156 107.25 210.476562 107.167969 209.910156 106.933594 C 209.347656 106.695312 208.875 106.347656 208.488281 105.886719 C 208.105469 105.425781 207.804688 104.855469 207.582031 104.179688 C 207.359375 103.503906 207.191406 102.761719 207.078125 101.949219 C 206.972656 101.222656 206.933594 100.5 206.960938 99.777344 C 206.984375 99.058594 207.085938 98.160156 207.085938 98.160156 C 207.101562 98.015625 207.148438 97.886719 207.191406 97.875 C 207.234375 97.863281 207.386719 97.851562 207.53125 97.84375 L 209.726562 97.78125 C 209.871094 97.777344 210.003906 97.890625 210.023438 98.027344 L 210.152344 98.910156 C 210.171875 99.054688 210.078125 99.214844 209.949219 99.269531 L 208.371094 99.910156 "/>
<path style=" stroke:none;fill-rule:nonzero;fill:rgb(1.727295%,2.270508%,2.323914%);fill-opacity:1;" d="M 222.136719 119.226562 C 221.992188 119.226562 221.855469 119.113281 221.828125 118.972656 L 221.613281 117.886719 C 221.585938 117.75 221.445312 117.636719 221.304688 117.636719 L 209.835938 117.683594 C 209.691406 117.683594 209.550781 117.800781 209.527344 117.941406 L 209.324219 119.027344 C 209.296875 119.167969 209.160156 119.28125 209.015625 119.28125 L 208.675781 119.285156 C 208.53125 119.285156 208.414062 119.171875 208.414062 119.027344 L 208.390625 113.867188 C 208.390625 113.722656 208.507812 113.601562 208.652344 113.601562 L 208.988281 113.601562 C 209.132812 113.601562 209.273438 113.714844 209.300781 113.855469 L 209.515625 114.941406 C 209.539062 115.078125 209.679688 115.195312 209.824219 115.191406 L 221.292969 115.144531 C 221.4375 115.144531 221.574219 115.027344 221.601562 114.886719 L 221.800781 113.800781 C 221.828125 113.660156 221.96875 113.546875 222.113281 113.546875 L 222.449219 113.542969 C 222.59375 113.542969 222.710938 113.660156 222.710938 113.800781 L 222.734375 118.964844 C 222.734375 119.105469 222.617188 119.222656 222.476562 119.222656 L 222.136719 119.226562 "/>
<path style=" stroke:none;fill-rule:nonzero;fill:rgb(1.727295%,2.270508%,2.323914%);fill-opacity:1;" d="M 209.015625 127.960938 C 208.847656 128.25 208.695312 128.578125 208.5625 128.945312 C 208.429688 129.308594 208.339844 129.625 208.300781 129.894531 C 208.148438 130.851562 208.238281 131.628906 208.5625 132.230469 C 208.890625 132.832031 209.4375 133.195312 210.207031 133.316406 C 210.664062 133.390625 211.070312 133.351562 211.425781 133.195312 C 211.78125 133.050781 212.101562 132.828125 212.394531 132.554688 C 212.6875 132.273438 212.960938 131.960938 213.210938 131.597656 C 213.457031 131.234375 213.714844 130.882812 213.976562 130.535156 C 214.375 130.023438 214.738281 129.554688 215.066406 129.136719 C 215.390625 128.71875 215.730469 128.378906 216.074219 128.105469 C 216.421875 127.832031 216.800781 127.644531 217.210938 127.539062 C 217.621094 127.429688 218.101562 127.417969 218.652344 127.507812 C 219.261719 127.597656 219.777344 127.8125 220.199219 128.140625 C 220.625 128.46875 220.960938 128.890625 221.203125 129.40625 C 221.445312 129.917969 221.601562 130.515625 221.660156 131.195312 C 221.71875 131.871094 221.683594 132.609375 221.558594 133.398438 C 221.515625 133.699219 221.441406 134.015625 221.347656 134.351562 C 221.257812 134.691406 221.152344 135.027344 221.035156 135.355469 C 220.921875 135.695312 220.800781 136.011719 220.667969 136.324219 C 220.535156 136.636719 220.394531 136.898438 220.394531 136.898438 C 220.328125 137.027344 220.234375 137.132812 220.1875 137.140625 C 220.140625 137.140625 219.992188 137.113281 219.851562 137.074219 L 217.738281 136.476562 C 217.597656 136.433594 217.503906 136.289062 217.527344 136.148438 L 217.664062 135.265625 C 217.6875 135.128906 217.820312 135.003906 217.964844 134.988281 L 219.699219 134.847656 C 219.863281 134.683594 220.011719 134.441406 220.152344 134.136719 C 220.289062 133.824219 220.394531 133.441406 220.464844 132.984375 C 220.597656 132.160156 220.507812 131.480469 220.199219 130.933594 C 219.890625 130.390625 219.398438 130.0625 218.722656 129.960938 C 218.296875 129.886719 217.925781 129.914062 217.617188 130.03125 C 217.308594 130.148438 217.03125 130.324219 216.789062 130.5625 C 216.542969 130.800781 216.316406 131.078125 216.109375 131.386719 C 215.902344 131.699219 215.683594 132.019531 215.449219 132.34375 C 215.121094 132.773438 214.785156 133.230469 214.441406 133.714844 C 214.09375 134.199219 213.71875 134.625 213.308594 134.996094 C 212.898438 135.363281 212.449219 135.648438 211.960938 135.847656 C 211.476562 136.046875 210.925781 136.085938 210.308594 135.960938 C 209.519531 135.792969 208.890625 135.515625 208.421875 135.128906 C 207.949219 134.734375 207.601562 134.261719 207.367188 133.710938 C 207.136719 133.15625 207.015625 132.527344 207.003906 131.8125 C 206.992188 131.101562 207.050781 130.339844 207.175781 129.53125 C 207.289062 128.804688 207.464844 128.097656 207.703125 127.421875 C 207.941406 126.742188 208.300781 125.910156 208.300781 125.910156 C 208.355469 125.777344 208.4375 125.671875 208.484375 125.671875 C 208.53125 125.671875 208.679688 125.707031 208.820312 125.742188 L 210.9375 126.328125 C 211.074219 126.363281 211.167969 126.511719 211.148438 126.652344 L 211.007812 127.53125 C 210.988281 127.675781 210.851562 127.800781 210.710938 127.8125 L 209.015625 127.960938 "/>
<path style=" stroke:none;fill-rule:nonzero;fill:rgb(1.727295%,2.270508%,2.323914%);fill-opacity:1;" d="M 54.265625 201.804688 C 54.394531 201.863281 54.566406 201.820312 54.644531 201.699219 L 60.550781 193.21875 L 49.558594 199.441406 C 49.433594 199.511719 49.238281 199.496094 49.128906 199.40625 L 48.6875 199.050781 C 48.578125 198.960938 48.515625 198.769531 48.554688 198.632812 L 51.734375 186.761719 L 45.058594 194.03125 C 44.957031 194.132812 44.941406 194.308594 45.027344 194.425781 L 45.695312 195.335938 C 45.78125 195.449219 45.769531 195.632812 45.671875 195.738281 L 45.445312 195.980469 C 45.347656 196.085938 45.179688 196.09375 45.078125 195.992188 L 41.824219 192.960938 C 41.71875 192.863281 41.710938 192.699219 41.808594 192.59375 L 42.039062 192.34375 C 42.136719 192.242188 42.316406 192.21875 42.4375 192.292969 L 43.375 192.886719 C 43.496094 192.960938 43.679688 192.941406 43.78125 192.839844 L 51.328125 184.464844 C 51.425781 184.355469 51.425781 184.179688 51.332031 184.070312 L 50.617188 183.222656 C 50.527344 183.113281 50.523438 182.933594 50.613281 182.820312 L 50.828125 182.558594 C 50.914062 182.449219 51.082031 182.429688 51.195312 182.519531 L 54.597656 185.285156 C 54.710938 185.378906 54.769531 185.566406 54.734375 185.703125 L 52.027344 196.152344 L 61.34375 191.078125 C 61.46875 191.007812 61.664062 191.027344 61.773438 191.117188 L 65.03125 193.769531 C 65.144531 193.859375 65.160156 194.019531 65.070312 194.132812 L 64.859375 194.394531 C 64.769531 194.507812 64.589844 194.542969 64.464844 194.476562 L 63.488281 193.949219 C 63.363281 193.878906 63.1875 193.917969 63.101562 194.03125 L 56.664062 203.179688 C 56.585938 203.300781 56.601562 203.476562 56.699219 203.589844 L 57.453125 204.398438 C 57.550781 204.503906 57.5625 204.683594 57.476562 204.800781 L 57.277344 205.070312 C 57.195312 205.1875 57.03125 205.210938 56.914062 205.128906 L 52.730469 202.058594 C 52.617188 201.976562 52.589844 201.8125 52.675781 201.699219 L 52.875 201.425781 C 52.960938 201.308594 53.132812 201.265625 53.261719 201.324219 L 54.265625 201.804688 "/>
<path style=" stroke:none;fill-rule:nonzero;fill:rgb(1.727295%,2.270508%,2.323914%);fill-opacity:1;" d="M 81.21875 207.109375 C 81.359375 206.320312 81.339844 205.605469 81.164062 204.964844 C 80.984375 204.324219 80.644531 203.75 80.152344 203.246094 C 79.65625 202.738281 78.425781 202.003906 78.425781 202.003906 C 78.300781 201.925781 78.097656 201.816406 77.96875 201.753906 L 76.671875 201.078125 L 71.140625 211.890625 L 72.382812 212.53125 C 72.980469 212.835938 73.558594 213.082031 74.113281 213.269531 C 74.671875 213.453125 75.210938 213.539062 75.722656 213.527344 C 76.542969 213.460938 77.34375 213.136719 78.132812 212.5625 C 78.917969 211.984375 79.640625 211.050781 80.296875 209.765625 C 80.765625 208.789062 81.074219 207.902344 81.21875 207.109375 Z M 78.886719 201.074219 C 79.898438 201.589844 80.777344 202.171875 81.535156 202.816406 C 82.285156 203.460938 82.855469 204.183594 83.238281 204.984375 C 83.621094 205.78125 83.789062 206.671875 83.746094 207.648438 C 83.699219 208.625 83.375 209.699219 82.773438 210.875 C 82.210938 211.976562 81.550781 212.855469 80.796875 213.507812 C 80.035156 214.160156 79.214844 214.59375 78.328125 214.816406 C 77.441406 215.03125 76.496094 215.050781 75.492188 214.878906 C 74.492188 214.703125 72.640625 213.902344 72.640625 213.902344 C 72.507812 213.847656 72.296875 213.75 72.167969 213.683594 L 67.203125 211.144531 C 67.078125 211.078125 67.027344 210.921875 67.089844 210.792969 L 67.242188 210.496094 C 67.308594 210.367188 67.476562 210.292969 67.613281 210.335938 L 68.679688 210.644531 C 68.816406 210.6875 68.980469 210.617188 69.046875 210.488281 L 74.253906 200.304688 C 74.316406 200.175781 74.28125 200 74.164062 199.910156 L 73.289062 199.230469 C 73.175781 199.140625 73.136719 198.964844 73.203125 198.839844 L 73.355469 198.539062 C 73.425781 198.410156 73.582031 198.359375 73.707031 198.425781 L 78.886719 201.074219 "/>
<path style=" stroke:none;fill-rule:nonzero;fill:rgb(1.727295%,2.270508%,2.323914%);fill-opacity:1;" d="M 103.34375 211.144531 C 103.3125 210.660156 103.324219 210.578125 103.3125 210.238281 C 103.289062 209.820312 103.15625 209.664062 102.738281 209.394531 C 102.574219 209.289062 102.390625 209.203125 102.195312 209.121094 C 101.886719 208.980469 101.539062 208.871094 101.148438 208.800781 C 100.433594 208.671875 99.765625 208.679688 99.140625 208.824219 C 98.515625 208.964844 97.953125 209.242188 97.453125 209.667969 C 96.953125 210.089844 96.527344 210.648438 96.167969 211.351562 C 95.808594 212.054688 95.542969 212.894531 95.367188 213.871094 C 94.988281 215.945312 95.136719 217.5625 95.808594 218.71875 C 96.480469 219.882812 97.648438 220.613281 99.304688 220.910156 C 99.789062 221 100.3125 221.035156 100.882812 221.015625 C 101.367188 220.992188 101.925781 220.925781 102.558594 220.847656 C 102.890625 220.808594 102.925781 221.046875 102.925781 221.046875 L 102.960938 221.308594 C 102.960938 221.308594 102.992188 221.613281 102.742188 221.703125 C 102.183594 221.914062 101.546875 222.066406 100.828125 222.160156 C 100 222.277344 99.097656 222.242188 98.113281 222.066406 C 97.171875 221.890625 96.308594 221.609375 95.535156 221.203125 C 94.761719 220.796875 94.121094 220.261719 93.617188 219.589844 C 93.113281 218.917969 92.769531 218.101562 92.582031 217.136719 C 92.394531 216.179688 92.414062 215.058594 92.652344 213.769531 C 92.886719 212.476562 93.28125 211.390625 93.835938 210.523438 C 94.390625 209.65625 95.058594 208.980469 95.839844 208.492188 C 96.625 208.003906 97.507812 207.699219 98.480469 207.570312 C 99.457031 207.445312 100.488281 207.480469 101.582031 207.679688 C 102.320312 207.816406 103.003906 208.007812 103.625 208.265625 C 104.054688 208.445312 104.460938 208.628906 104.847656 208.816406 C 105.375 209.078125 105.234375 209.527344 105.234375 209.527344 L 104.667969 211.40625 C 104.667969 211.40625 104.53125 211.816406 104.167969 211.757812 C 103.847656 211.699219 103.652344 211.664062 103.652344 211.664062 C 103.652344 211.664062 103.375 211.625 103.34375 211.144531 "/>
<path style=" stroke:none;fill-rule:nonzero;fill:rgb(1.727295%,2.270508%,2.323914%);fill-opacity:1;" d="M 125.136719 211.632812 C 124.992188 211.175781 124.988281 211.085938 124.890625 210.761719 C 124.773438 210.363281 124.605469 210.238281 124.136719 210.078125 C 123.953125 210.015625 123.753906 209.972656 123.542969 209.933594 C 123.210938 209.871094 122.84375 209.855469 122.449219 209.878906 C 121.726562 209.917969 121.074219 210.085938 120.503906 210.371094 C 119.933594 210.660156 119.453125 211.066406 119.066406 211.589844 C 118.675781 212.117188 118.394531 212.765625 118.214844 213.53125 C 118.03125 214.300781 117.972656 215.179688 118.03125 216.171875 C 118.15625 218.273438 118.683594 219.8125 119.609375 220.78125 C 120.539062 221.746094 121.84375 222.179688 123.523438 222.078125 C 124.015625 222.050781 124.535156 221.960938 125.082031 221.800781 C 125.546875 221.671875 126.074219 221.472656 126.675781 221.242188 C 126.984375 221.125 127.074219 221.355469 127.074219 221.355469 L 127.171875 221.597656 C 127.171875 221.597656 127.273438 221.882812 127.054688 222.035156 C 126.558594 222.371094 125.976562 222.671875 125.300781 222.933594 C 124.527344 223.238281 123.636719 223.421875 122.640625 223.480469 C 121.683594 223.539062 120.78125 223.464844 119.933594 223.253906 C 119.085938 223.042969 118.335938 222.671875 117.6875 222.140625 C 117.039062 221.605469 116.511719 220.894531 116.101562 220.011719 C 115.691406 219.113281 115.445312 218.019531 115.371094 216.714844 C 115.292969 215.398438 115.417969 214.253906 115.753906 213.277344 C 116.085938 212.308594 116.574219 211.488281 117.222656 210.832031 C 117.867188 210.175781 118.652344 209.667969 119.570312 209.3125 C 120.484375 208.960938 121.496094 208.746094 122.605469 208.683594 C 123.355469 208.636719 124.066406 208.664062 124.730469 208.769531 C 125.191406 208.84375 125.632812 208.925781 126.046875 209.011719 C 126.625 209.144531 126.59375 209.613281 126.59375 209.613281 L 126.488281 211.574219 C 126.488281 211.574219 126.453125 212.007812 126.085938 212.03125 C 125.757812 212.054688 125.5625 212.058594 125.5625 212.058594 C 125.5625 212.058594 125.28125 212.089844 125.136719 211.632812 "/>
<path style=" stroke:none;fill-rule:nonzero;fill:rgb(1.727295%,2.270508%,2.323914%);fill-opacity:1;" d="M 146.390625 207.144531 C 146.152344 206.722656 146.132812 206.644531 145.96875 206.347656 C 145.769531 205.976562 145.578125 205.894531 145.089844 205.835938 C 144.894531 205.808594 144.691406 205.8125 144.476562 205.820312 C 144.140625 205.828125 143.777344 205.886719 143.398438 205.992188 C 142.699219 206.1875 142.097656 206.484375 141.601562 206.882812 C 141.101562 207.285156 140.714844 207.777344 140.449219 208.375 C 140.179688 208.972656 140.039062 209.667969 140.023438 210.453125 C 140.007812 211.238281 140.132812 212.113281 140.398438 213.074219 C 140.960938 215.101562 141.800781 216.492188 142.910156 217.246094 C 144.019531 217.996094 145.386719 218.144531 147.007812 217.695312 C 147.484375 217.566406 147.96875 217.363281 148.472656 217.101562 C 148.902344 216.871094 149.375 216.566406 149.910156 216.21875 C 150.191406 216.035156 150.328125 216.242188 150.328125 216.242188 L 150.472656 216.464844 C 150.472656 216.464844 150.632812 216.71875 150.449219 216.914062 C 150.039062 217.34375 149.527344 217.761719 148.925781 218.15625 C 148.230469 218.625 147.402344 218.988281 146.4375 219.253906 C 145.515625 219.507812 144.617188 219.625 143.742188 219.59375 C 142.871094 219.570312 142.058594 219.367188 141.3125 218.980469 C 140.566406 218.59375 139.902344 218.011719 139.316406 217.226562 C 138.726562 216.445312 138.257812 215.421875 137.910156 214.164062 C 137.554688 212.894531 137.441406 211.746094 137.5625 210.722656 C 137.683594 209.699219 137.992188 208.800781 138.484375 208.023438 C 138.980469 207.242188 139.636719 206.582031 140.460938 206.042969 C 141.285156 205.507812 142.230469 205.089844 143.300781 204.789062 C 144.023438 204.589844 144.722656 204.46875 145.390625 204.433594 C 145.859375 204.40625 146.308594 204.394531 146.730469 204.394531 C 147.324219 204.398438 147.394531 204.863281 147.394531 204.863281 L 147.699219 206.804688 C 147.699219 206.804688 147.757812 207.234375 147.402344 207.339844 C 147.089844 207.425781 146.898438 207.472656 146.898438 207.472656 C 146.898438 207.472656 146.632812 207.5625 146.390625 207.144531 "/>
<path style=" stroke:none;fill-rule:nonzero;fill:rgb(1.727295%,2.270508%,2.323914%);fill-opacity:1;" d="M 164.082031 203.675781 L 157.769531 200.816406 C 157.640625 200.753906 157.421875 200.742188 157.285156 200.78125 L 156.335938 201.074219 C 156.199219 201.117188 156.027344 201.050781 155.957031 200.929688 L 155.792969 200.636719 C 155.71875 200.507812 155.765625 200.351562 155.886719 200.277344 L 160.429688 197.691406 C 160.554688 197.621094 160.714844 197.667969 160.789062 197.785156 L 160.953125 198.085938 C 161.023438 198.207031 160.996094 198.386719 160.890625 198.484375 L 160.328125 199.003906 C 160.21875 199.097656 160.242188 199.230469 160.371094 199.289062 L 164.867188 201.429688 L 165.421875 196.40625 C 165.4375 196.265625 165.339844 196.179688 165.203125 196.222656 L 164.417969 196.472656 C 164.277344 196.515625 164.109375 196.453125 164.039062 196.324219 L 163.871094 196.035156 C 163.800781 195.90625 163.84375 195.746094 163.96875 195.675781 L 167.566406 193.628906 C 167.691406 193.558594 167.847656 193.601562 167.921875 193.722656 L 168.089844 194.019531 C 168.160156 194.140625 168.128906 194.320312 168.023438 194.417969 L 167.199219 195.140625 C 167.09375 195.234375 166.992188 195.425781 166.976562 195.570312 L 166.28125 201.957031 L 173.273438 205.210938 C 173.402344 205.269531 173.621094 205.285156 173.757812 205.242188 L 174.726562 204.941406 C 174.859375 204.898438 175.03125 204.964844 175.101562 205.089844 L 175.269531 205.382812 C 175.339844 205.503906 175.296875 205.664062 175.171875 205.734375 L 170.609375 208.335938 C 170.484375 208.402344 170.328125 208.363281 170.257812 208.234375 L 170.089844 207.945312 C 170.019531 207.816406 170.046875 207.636719 170.15625 207.546875 L 170.765625 206.992188 C 170.875 206.898438 170.855469 206.765625 170.726562 206.707031 L 165.472656 204.1875 L 164.835938 210.066406 C 164.820312 210.210938 164.917969 210.289062 165.054688 210.25 L 165.804688 210.019531 C 165.941406 209.976562 166.109375 210.046875 166.183594 210.167969 L 166.351562 210.460938 C 166.421875 210.585938 166.378906 210.742188 166.253906 210.816406 L 162.636719 212.875 C 162.511719 212.945312 162.351562 212.902344 162.28125 212.777344 L 162.117188 212.488281 C 162.046875 212.359375 162.074219 212.183594 162.179688 212.089844 L 163.003906 211.363281 C 163.109375 211.269531 163.214844 211.074219 163.230469 210.9375 L 164.082031 203.675781 "/>
<path style=" stroke:none;fill-rule:nonzero;fill:rgb(1.727295%,2.270508%,2.323914%);fill-opacity:1;" d="M 179.726562 184.480469 C 179.820312 184.59375 179.824219 184.769531 179.738281 184.882812 L 179.058594 185.761719 C 178.972656 185.871094 178.976562 186.054688 179.070312 186.164062 L 186.636719 194.738281 C 186.730469 194.847656 186.910156 194.875 187.035156 194.800781 L 187.988281 194.238281 C 188.109375 194.164062 188.289062 194.191406 188.382812 194.300781 L 188.605469 194.550781 C 188.703125 194.660156 188.691406 194.824219 188.585938 194.921875 L 184.695312 198.351562 C 184.585938 198.445312 184.421875 198.4375 184.324219 198.328125 L 184.105469 198.078125 C 184.007812 197.96875 184.003906 197.785156 184.089844 197.675781 L 184.773438 196.800781 C 184.859375 196.683594 184.851562 196.507812 184.757812 196.394531 L 177.191406 187.820312 C 177.097656 187.714844 176.921875 187.683594 176.796875 187.757812 L 175.84375 188.320312 C 175.71875 188.394531 175.539062 188.363281 175.445312 188.257812 L 175.222656 188.007812 C 175.128906 187.894531 175.136719 187.730469 175.246094 187.640625 L 179.136719 184.207031 C 179.242188 184.109375 179.40625 184.125 179.503906 184.230469 L 179.726562 184.480469 "/>
<path style=" stroke:none;fill-rule:nonzero;fill:rgb(1.727295%,2.270508%,2.323914%);fill-opacity:1;" d="M 41.898438 48.625 C 41.796875 48.730469 41.722656 48.796875 41.722656 48.796875 L 37.59375 44.890625 L 38.335938 44.125 C 38.433594 44.019531 38.597656 43.851562 38.699219 43.753906 C 38.699219 43.753906 39.152344 43.3125 39.46875 43.078125 C 39.785156 42.84375 40.109375 42.691406 40.441406 42.621094 C 40.769531 42.550781 41.109375 42.574219 41.460938 42.6875 C 41.8125 42.804688 42.175781 43.046875 42.550781 43.402344 C 43.367188 44.183594 43.757812 44.941406 43.714844 45.679688 C 43.667969 46.417969 42.730469 47.703125 42.730469 47.703125 C 42.644531 47.816406 42.496094 47.996094 42.398438 48.101562 Z M 50.722656 50.078125 C 50.863281 50.101562 51.058594 50.039062 51.15625 49.933594 L 53.320312 47.664062 C 53.417969 47.558594 53.414062 47.394531 53.3125 47.296875 L 53.066406 47.0625 C 52.960938 46.960938 52.78125 46.949219 52.664062 47.027344 L 51.839844 47.601562 C 51.722656 47.683594 51.511719 47.730469 51.367188 47.710938 L 44.914062 46.660156 C 44.773438 46.636719 44.707031 46.511719 44.765625 46.382812 C 44.765625 46.382812 45.558594 44.679688 45.523438 43.792969 C 45.492188 42.90625 45.097656 42.101562 44.335938 41.375 C 43.792969 40.859375 43.246094 40.558594 42.695312 40.472656 C 42.140625 40.394531 41.605469 40.449219 41.078125 40.644531 C 40.550781 40.839844 40.046875 41.132812 39.558594 41.527344 C 39.070312 41.921875 38.382812 42.601562 38.382812 42.601562 C 38.28125 42.699219 38.113281 42.867188 38.015625 42.972656 L 34.21875 46.960938 C 34.121094 47.066406 34.125 47.230469 34.226562 47.328125 L 34.472656 47.5625 C 34.574219 47.660156 34.757812 47.675781 34.871094 47.59375 L 35.785156 46.9375 C 35.902344 46.855469 36.082031 46.867188 36.183594 46.964844 L 44.492188 54.871094 C 44.59375 54.96875 44.617188 55.148438 44.539062 55.269531 L 43.929688 56.210938 C 43.851562 56.332031 43.875 56.511719 43.976562 56.609375 L 44.222656 56.84375 C 44.328125 56.941406 44.492188 56.9375 44.589844 56.835938 L 48.148438 53.097656 C 48.246094 52.992188 48.242188 52.828125 48.140625 52.726562 L 47.894531 52.492188 C 47.789062 52.394531 47.613281 52.382812 47.496094 52.464844 L 46.597656 53.105469 C 46.480469 53.1875 46.300781 53.179688 46.195312 53.078125 L 42.371094 49.4375 L 42.9375 48.839844 C 43.035156 48.738281 43.230469 48.671875 43.371094 48.699219 L 50.722656 50.078125 "/>
</g>
</svg>
