<?xml version="1.0" encoding="UTF-8"?>
<svg xmlns="http://www.w3.org/2000/svg" xmlns:xlink="http://www.w3.org/1999/xlink" width="468pt" height="123pt" viewBox="0 0 468 123" version="1.1">
<g id="surface1">
<path style=" stroke:none;fill-rule:nonzero;fill:rgb(1.727295%,2.270508%,2.323914%);fill-opacity:1;" d="M 0 3.046875 L 0 1.820312 L 22.777344 1.820312 L 22.777344 3.046875 C 16.183594 3.859375 16.046875 4.675781 16.046875 11.816406 L 16.046875 31.464844 C 16.046875 42.140625 19.648438 48.125 28.898438 48.125 C 38.894531 48.125 42.292969 41.121094 42.496094 30.921875 L 42.496094 11.746094 C 42.496094 4.746094 42.359375 3.859375 35.765625 3.046875 L 35.765625 1.820312 L 52.425781 1.820312 L 52.425781 3.046875 C 45.828125 3.859375 45.691406 4.746094 45.691406 11.746094 L 45.691406 30.785156 C 45.691406 45.539062 38.824219 52 26.652344 52 C 13.121094 52 6.730469 44.996094 6.730469 32.417969 L 6.730469 11.816406 C 6.730469 4.8125 6.597656 3.859375 0 3.046875 "/>
<path style=" stroke:none;fill-rule:nonzero;fill:rgb(1.727295%,2.270508%,2.323914%);fill-opacity:1;" d="M 90.367188 3.046875 L 90.367188 1.820312 L 107.027344 1.820312 L 107.027344 3.046875 C 100.433594 3.859375 100.296875 4.746094 100.296875 11.746094 L 100.296875 51.117188 L 94.585938 51.117188 L 65.617188 13.652344 L 65.617188 41.1875 C 65.617188 48.191406 65.757812 49.074219 72.351562 49.890625 L 72.351562 51.117188 L 55.691406 51.117188 L 55.691406 49.890625 C 62.289062 49.074219 62.425781 48.191406 62.425781 41.1875 L 62.425781 9.503906 L 61.269531 8.007812 C 58.890625 4.882812 57.597656 3.589844 55.691406 2.839844 L 55.691406 1.820312 L 68.339844 1.820312 L 97.101562 38.808594 L 97.101562 11.746094 C 97.101562 4.746094 96.964844 3.859375 90.367188 3.046875 "/>
<path style=" stroke:none;fill-rule:nonzero;fill:rgb(1.727295%,2.270508%,2.323914%);fill-opacity:1;" d="M 127.226562 41.1875 C 127.226562 48.191406 127.363281 49.074219 133.957031 49.890625 L 133.957031 51.117188 L 111.179688 51.117188 L 111.179688 49.890625 C 117.773438 49.074219 117.910156 48.191406 117.910156 41.1875 L 117.910156 11.746094 C 117.910156 4.746094 117.773438 3.859375 111.179688 3.046875 L 111.179688 1.820312 L 133.957031 1.820312 L 133.957031 3.046875 C 127.363281 3.859375 127.226562 4.746094 127.226562 11.746094 L 127.226562 41.1875 "/>
<path style=" stroke:none;fill-rule:nonzero;fill:rgb(1.727295%,2.270508%,2.323914%);fill-opacity:1;" d="M 144.433594 9.707031 C 142.527344 4.746094 141.710938 3.589844 137.496094 3.046875 L 137.496094 1.820312 L 158.507812 1.820312 L 158.507812 3.046875 C 154.222656 3.589844 152.929688 4.8125 154.152344 8.210938 L 166.121094 40.917969 L 174.414062 16.914062 C 178.835938 4.132812 176.933594 3.589844 171.695312 3.046875 L 171.695312 1.820312 L 187.402344 1.820312 L 187.402344 3.046875 C 182.847656 3.589844 182.167969 4.472656 178.632812 14.605469 L 165.78125 51.117188 L 160.273438 51.117188 L 144.433594 9.707031 "/>
<path style=" stroke:none;fill-rule:nonzero;fill:rgb(1.727295%,2.270508%,2.323914%);fill-opacity:1;" d="M 216.167969 51.117188 L 190.941406 51.117188 L 190.941406 49.890625 C 197.539062 49.074219 197.675781 48.191406 197.675781 41.1875 L 197.675781 11.746094 C 197.675781 4.746094 197.539062 3.859375 190.941406 3.046875 L 190.941406 1.820312 L 215.488281 1.820312 C 220.179688 1.820312 226.230469 1.820312 231.535156 1.617188 L 233.164062 17.867188 L 231.808594 17.867188 C 228.40625 6.378906 223.78125 4.269531 210.59375 4.269531 L 206.988281 4.269531 L 206.988281 24.191406 L 214.945312 24.191406 C 218.820312 24.191406 221.269531 22.285156 221.945312 16.574219 L 223.171875 16.574219 L 223.171875 34.796875 L 221.945312 34.796875 C 221.269531 29.085938 218.820312 27.183594 214.945312 27.183594 L 206.988281 27.183594 L 206.988281 45.8125 C 206.988281 48.191406 207.464844 48.734375 210.457031 48.734375 L 213.039062 48.734375 C 225.414062 48.734375 229.769531 45.949219 233.4375 34.933594 L 234.730469 34.933594 L 232.011719 51.183594 C 226.570312 51.117188 220.996094 51.117188 216.167969 51.117188 "/>
<path style=" stroke:none;fill-rule:nonzero;fill:rgb(1.727295%,2.270508%,2.323914%);fill-opacity:1;" d="M 261.660156 4.199219 L 257.105469 4.199219 L 257.105469 25.550781 L 261.660156 25.550781 C 269.480469 25.550781 274.035156 22.832031 274.035156 14.875 C 274.035156 6.921875 269.480469 4.199219 261.660156 4.199219 Z M 241.058594 49.890625 C 247.652344 49.074219 247.789062 48.191406 247.789062 41.1875 L 247.789062 11.746094 C 247.789062 4.746094 247.652344 3.859375 241.058594 3.046875 L 241.058594 1.820312 L 249.761719 1.820312 C 253.09375 1.820312 259.960938 1.753906 262.066406 1.753906 C 274.644531 1.753906 284.367188 5.152344 284.367188 14.738281 C 284.367188 21.335938 279.40625 25.210938 272.0625 26.976562 L 282.601562 43.296875 C 285.730469 48.125 286.75 49.347656 291.507812 49.890625 L 291.507812 51.117188 L 276.277344 51.117188 C 274.984375 48.601562 272.878906 44.859375 270.636719 41.1875 L 267.710938 36.632812 C 264.855469 32.144531 263.359375 29.835938 262 27.996094 L 257.105469 27.996094 L 257.105469 41.1875 C 257.105469 48.191406 257.238281 49.074219 264.515625 49.890625 L 264.515625 51.117188 L 241.058594 51.117188 L 241.058594 49.890625 "/>
<path style=" stroke:none;fill-rule:nonzero;fill:rgb(1.727295%,2.270508%,2.323914%);fill-opacity:1;" d="M 296.816406 48.328125 L 296.816406 31.738281 L 298.179688 31.738281 C 300.082031 44.382812 305.113281 49.484375 313.203125 49.484375 C 319.1875 49.484375 324.148438 46.558594 324.148438 40.441406 C 324.148438 35.816406 320.480469 33.4375 315.039062 30.855469 L 308.988281 27.996094 C 301.78125 24.597656 297.226562 20.109375 297.226562 13.515625 C 297.226562 5.695312 304.636719 0.257812 314.15625 0.257812 C 319.050781 0.257812 325.441406 1.617188 328.773438 3.65625 L 328.773438 17.59375 L 327.414062 17.59375 C 325.511719 7.871094 320.816406 2.773438 314.089844 2.773438 C 308.578125 2.773438 304.703125 5.355469 304.703125 10.117188 C 304.703125 14.808594 307.898438 16.984375 311.503906 18.683594 L 318.710938 22.082031 C 326.257812 25.617188 331.902344 29.359375 331.902344 36.769531 C 331.902344 45.675781 323.402344 52 313.203125 52 C 306.539062 52 300.761719 50.4375 296.816406 48.328125 "/>
<path style=" stroke:none;fill-rule:nonzero;fill:rgb(1.727295%,2.270508%,2.323914%);fill-opacity:1;" d="M 354.410156 41.1875 C 354.410156 48.191406 354.546875 49.074219 361.144531 49.890625 L 361.144531 51.117188 L 338.363281 51.117188 L 338.363281 49.890625 C 344.960938 49.074219 345.097656 48.191406 345.097656 41.1875 L 345.097656 11.746094 C 345.097656 4.746094 344.960938 3.859375 338.363281 3.046875 L 338.363281 1.820312 L 361.144531 1.820312 L 361.144531 3.046875 C 354.546875 3.859375 354.410156 4.746094 354.410156 11.746094 L 354.410156 41.1875 "/>
<path style=" stroke:none;fill-rule:nonzero;fill:rgb(1.727295%,2.270508%,2.323914%);fill-opacity:1;" d="M 378.824219 49.890625 C 386.03125 49.074219 386.304688 47.988281 386.304688 41.1875 L 386.304688 4.066406 L 384.605469 4.066406 C 375.085938 4.066406 371.070312 8.890625 367.671875 19.769531 L 366.3125 19.769531 L 368.351562 1.617188 C 373.589844 1.820312 379.910156 1.820312 384.605469 1.820312 L 397.25 1.820312 C 401.941406 1.820312 408.265625 1.820312 413.566406 1.617188 L 415.605469 19.769531 L 414.179688 19.769531 C 410.847656 8.890625 406.835938 4.066406 397.316406 4.066406 L 395.617188 4.066406 L 395.617188 41.1875 C 395.617188 47.988281 395.890625 49.074219 403.097656 49.890625 L 403.097656 51.117188 L 378.824219 51.117188 L 378.824219 49.890625 "/>
<path style=" stroke:none;fill-rule:nonzero;fill:rgb(1.727295%,2.270508%,2.323914%);fill-opacity:1;" d="M 454.300781 49.890625 L 454.300781 51.117188 L 430.027344 51.117188 L 430.027344 49.890625 C 437.234375 49.074219 437.507812 47.988281 437.507812 41.1875 L 437.507812 31.738281 L 425.0625 9.367188 C 422.410156 4.472656 421.460938 3.589844 418.332031 3.046875 L 418.332031 1.820312 L 439.34375 1.820312 L 439.34375 3.046875 C 435.058594 3.589844 433.492188 4.746094 435.128906 7.941406 L 445.597656 27.65625 L 453.960938 12.835938 C 458.378906 5.152344 457.226562 3.519531 452.328125 3.046875 L 452.328125 1.820312 L 467.492188 1.820312 L 467.492188 3.046875 C 463.820312 3.65625 462.1875 4.8125 458.175781 11.542969 L 446.820312 31.261719 L 446.820312 41.1875 C 446.820312 47.988281 447.09375 49.074219 454.300781 49.890625 "/>
<path style=" stroke:none;fill-rule:nonzero;fill:rgb(1.727295%,2.270508%,2.323914%);fill-opacity:1;" d="M 28.148438 73.976562 C 18.765625 73.976562 12.648438 82.882812 12.648438 97.230469 C 12.648438 111.578125 18.765625 120.484375 28.148438 120.484375 C 37.53125 120.484375 43.652344 111.578125 43.652344 97.230469 C 43.652344 82.882812 37.53125 73.976562 28.148438 73.976562 Z M 28.148438 71.460938 C 41.476562 71.460938 54.054688 80.4375 54.054688 97.230469 C 54.054688 114.023438 41.476562 123 28.148438 123 C 14.824219 123 2.242188 114.023438 2.242188 97.230469 C 2.242188 80.4375 14.824219 71.460938 28.148438 71.460938 "/>
<path style=" stroke:none;fill-rule:nonzero;fill:rgb(1.727295%,2.270508%,2.323914%);fill-opacity:1;" d="M 60.589844 120.890625 C 67.183594 120.074219 67.320312 119.191406 67.320312 112.1875 L 67.320312 82.746094 C 67.320312 75.746094 67.183594 74.859375 60.589844 74.046875 L 60.589844 72.820312 L 86.492188 72.820312 C 91.1875 72.820312 97.234375 72.820312 102.539062 72.617188 L 104.171875 88.867188 L 102.8125 88.867188 C 99.410156 77.378906 94.789062 75.269531 81.597656 75.269531 L 76.636719 75.269531 L 76.636719 95.191406 L 84.589844 95.191406 C 88.464844 95.191406 90.914062 93.285156 91.59375 87.574219 L 92.816406 87.574219 L 92.816406 105.796875 L 91.59375 105.796875 C 90.914062 100.085938 88.464844 98.183594 84.589844 98.183594 L 76.636719 98.183594 L 76.636719 112.257812 C 76.636719 119.054688 76.90625 120.074219 84.113281 120.890625 L 84.113281 122.117188 L 60.589844 122.117188 L 60.589844 120.890625 "/>
<path style=" stroke:none;fill-rule:nonzero;fill:rgb(1.727295%,2.270508%,2.323914%);fill-opacity:1;" d="M 152.859375 73.976562 C 143.476562 73.976562 137.359375 82.882812 137.359375 97.230469 C 137.359375 111.578125 143.476562 120.484375 152.859375 120.484375 C 162.242188 120.484375 168.363281 111.578125 168.363281 97.230469 C 168.363281 82.882812 162.242188 73.976562 152.859375 73.976562 Z M 152.859375 71.460938 C 166.1875 71.460938 178.765625 80.4375 178.765625 97.230469 C 178.765625 114.023438 166.1875 123 152.859375 123 C 139.535156 123 126.953125 114.023438 126.953125 97.230469 C 126.953125 80.4375 139.535156 71.460938 152.859375 71.460938 "/>
<path style=" stroke:none;fill-rule:nonzero;fill:rgb(1.727295%,2.270508%,2.323914%);fill-opacity:1;" d="M 187.8125 119.328125 L 187.8125 102.738281 L 189.175781 102.738281 C 191.078125 115.382812 196.109375 120.484375 204.199219 120.484375 C 210.183594 120.484375 215.148438 117.558594 215.148438 111.441406 C 215.148438 106.816406 211.476562 104.4375 206.035156 101.855469 L 199.984375 98.996094 C 192.777344 95.597656 188.222656 91.109375 188.222656 84.515625 C 188.222656 76.695312 195.632812 71.257812 205.152344 71.257812 C 210.050781 71.257812 216.4375 72.617188 219.769531 74.65625 L 219.769531 88.59375 L 218.410156 88.59375 C 216.507812 78.871094 211.816406 73.773438 205.085938 73.773438 C 199.578125 73.773438 195.703125 76.355469 195.703125 81.117188 C 195.703125 85.808594 198.898438 87.984375 202.503906 89.683594 L 209.710938 93.082031 C 217.257812 96.617188 222.898438 100.359375 222.898438 107.769531 C 222.898438 116.675781 214.398438 123 204.199219 123 C 197.539062 123 191.757812 121.4375 187.8125 119.328125 "/>
<path style=" stroke:none;fill-rule:nonzero;fill:rgb(1.727295%,2.270508%,2.323914%);fill-opacity:1;" d="M 229.363281 120.890625 C 235.957031 120.074219 236.09375 119.191406 236.09375 112.1875 L 236.09375 82.746094 C 236.09375 75.746094 235.957031 74.859375 229.363281 74.046875 L 229.363281 72.820312 L 252.140625 72.820312 L 252.140625 74.046875 C 245.546875 74.859375 245.40625 75.746094 245.40625 82.746094 L 245.40625 116.949219 C 245.40625 119.191406 246.089844 119.734375 248.195312 119.734375 L 250.304688 119.734375 C 262.609375 119.734375 265.875 116.742188 269.546875 105.117188 L 270.90625 105.117188 L 268.730469 122.183594 C 265.46875 122.117188 257.511719 122.117188 254.792969 122.117188 L 229.363281 122.117188 L 229.363281 120.890625 "/>
<path style=" stroke:none;fill-rule:nonzero;fill:rgb(1.727295%,2.270508%,2.323914%);fill-opacity:1;" d="M 301.847656 73.976562 C 292.464844 73.976562 286.34375 82.882812 286.34375 97.230469 C 286.34375 111.578125 292.464844 120.484375 301.847656 120.484375 C 311.230469 120.484375 317.351562 111.578125 317.351562 97.230469 C 317.351562 82.882812 311.230469 73.976562 301.847656 73.976562 Z M 301.847656 71.460938 C 315.175781 71.460938 327.753906 80.4375 327.753906 97.230469 C 327.753906 114.023438 315.175781 123 301.847656 123 C 288.519531 123 275.941406 114.023438 275.941406 97.230469 C 275.941406 80.4375 288.519531 71.460938 301.847656 71.460938 "/>
</g>
</svg>
